<?xml version="1.0" standalone="no"?>
<!DOCTYPE svg PUBLIC "-//W3C//DTD SVG 1.1//EN" "http://www.w3.org/Graphics/SVG/1.1/DTD/svg11.dtd" >
<!--
2013-9-30: Created.
-->
<svg>
<metadata>
Created by iconfont
</metadata>
<defs>

<font id="iconfont" horiz-adv-x="1024" >
  <font-face
    font-family="iconfont"
    font-weight="500"
    font-stretch="normal"
    units-per-em="1024"
    ascent="896"
    descent="-128"
  />
    <missing-glyph />
    
    <glyph glyph-name="zhankai" unicode="&#59034;" d="M844.12109375 681.31640625H170.19335937v-79.28613281h673.92773438v79.28613281zM606.28027344 443.46679688H170.19335937v-79.28613282h436.08691407v79.28613282zM170.19335937 86.68359375h673.92773438v79.28613281H170.19335937v-79.28613281z m515.390625 158.56347656l168.22265625 146.68945313-168.22265625 130.81640625v-277.50585938z"  horiz-adv-x="1024" />

    
    <glyph glyph-name="user" unicode="&#58884;" d="M951.333615 608.64027m-223.980237 0a218.879 218.879 0 1 0 447.960475 0 218.879 218.879 0 1 0-447.960475 0ZM1335.466389 0.517025c-0.490164 212.177424-172.280762 384.030443-384.132774 384.030443-211.854059 0-383.644657-171.85302-384.134821-384.030443L1335.466389 0.517025z"  horiz-adv-x="1872" />

    
    <glyph glyph-name="-baobiaozhongxin" unicode="&#58965;" d="M298.658909 299.636364a46.545455 46.545455 0 0 1-93.090909 0v-231.749819h93.090909v231.749819zM401.454545 267.636364v-199.749819h93.09091V267.636364a46.545455 46.545455 0 0 1-93.09091 0zM965.818182 11.636364H93.090909V791.272727a34.909091 34.909091 0 1 1-69.818182 0V-11.636364a46.545455 46.545455 0 0 1 46.545455-46.545454h896a34.909091 34.909091 0 1 1 0 69.818182z m-349.090909 581.818181l311.272727-107.636363V826.181818H205.568v-372.363636l219.159273-46.545455 192 186.181818z m0-168.727272v-356.840728h93.090909V424.727273a46.545455 46.545455 0 0 1-93.090909 0z m215.272727-69.818182v-287.022546h93.090909V354.909091a46.545455 46.545455 0 0 1-93.090909 0z"  horiz-adv-x="1024" />

    
    <glyph glyph-name="baobiao" unicode="&#58998;" d="M204.8 623.104C204.8 660.718933 235.281067 691.2 272.896 691.2h478.208C788.718933 691.2 819.2 660.718933 819.2 623.104v-478.208A68.096 68.096 0 0 0 751.104 76.8H272.896A68.096 68.096 0 0 0 204.8 144.896V623.104zM273.066667 486.4v-341.333333h477.866666V486.4H273.066667zM307.2 452.266667h409.6v-68.266667H307.2zM307.2 349.866667h409.6v-68.266667H307.2zM307.2 247.466667h409.6v-68.266667H307.2z"  horiz-adv-x="1024" />

    
    <glyph glyph-name="baobiaoguanli" unicode="&#58995;" d="M147.899259 839.083615h55.295079c15.701072 0 28.432593-12.731521 28.432593-28.432593v-28.432592c0-31.402143 25.463042-56.899318 56.865185-56.899319h447.002684c31.402143 0 56.865186 25.463042 56.865185 56.899319V810.651022c0 15.701072 12.731521 28.432593 28.466726 28.432593h55.260945c15.701072 0 28.432593-12.731521 28.432593-28.432593v-910.218429c0-15.701072-12.731521-28.432593-28.432593-28.432593H147.899259A28.432593 28.432593 0 0 0 119.466667-99.567407V810.651022c0 15.701072 12.731521 28.432593 28.432592 28.432593zM260.093656 554.655289a28.432593 28.432593 0 1 1 0-56.899318h503.867869a28.432593 28.432593 0 0 1 0 56.899318H260.059523z m0-170.663822a28.432593 28.432593 0 1 1 0-56.899319h503.867869a28.432593 28.432593 0 0 1 0 56.899319H260.059523z m0-170.663822a28.432593 28.432593 0 1 1 0-56.899319h335.627473a28.432593 28.432593 0 0 1 0 56.899319H260.093656zM344.572248 895.982934h334.84242a56.899318 56.899318 0 1 0 0-113.764504h-334.84242a56.899318 56.899318 0 1 0 0 113.764504z"  horiz-adv-x="1024" />

    
    <glyph glyph-name="baobiaoguanli1" unicode="&#58882;" d="M426.1-62.38H179.98c-22.17 0-40.15 19.25-40.15 43v808c0 23.75 17.98 43 40.15 43h621.97c22.18 0 40.16-19.27 40.15-43.03l-0.28-408.87c-0.02-23.75-18-42.99-40.18-42.97-22.17 0.02-40.14 19.28-40.12 43.03l0.25 365.84H220.13v-722H426.1c22.17 0 40.15-19.25 40.15-43s-17.98-43-40.15-43zM699.38 550.99c0 23.75-19.25 43-43 43h-302c-23.75 0-43-19.25-43-43s19.25-43 43-43h302c23.75 0 43 19.25 43 43zM357.38 408.49c-23.75 0-43-19.25-43-43s19.25-43 43-43h203c23.75 0 43 19.25 43 43s-19.25 43-43 43h-203zM869.98 160.01v-0.14h-17.02c-8.48 0.48-15.8 6.11-18.44 14.19l-9.79 24.97a22.135 22.135 0 0 0 3.33 23.62l12.06 12.55c5.66 5.97 5.66 15.31 0 21.28l-20.07 21.28c-0.2 0.21-0.41 0.42-0.62 0.62-5.54 5.2-14.25 4.92-19.45-0.62l-12.06-12.62c-6.01-5.85-15.07-7.25-22.55-3.48l-23.69 10.28a21.286 21.286 0 0 0-13.55 19.29v17.52c0.12 7.99-6.2 14.59-14.19 14.82h-28.37c-7.99-0.23-14.31-6.84-14.19-14.82v-17.52a21.275 21.275 0 0 0-13.62-19.15L634 261.8a19.48 19.48 0 0 0-22.48 3.48l-12.06 12.62c-0.2 0.21-0.41 0.42-0.62 0.62-5.54 5.2-14.25 4.92-19.45-0.62l-20.07-21.28c-5.69-5.95-5.69-15.33 0-21.28l12.06-12.62a22.065 22.065 0 0 0 3.4-23.62L565 174.13a20.73 20.73 0 0 0-18.44-14.19h-17.02c-8-0.19-14.34-6.82-14.19-14.82v-29.79c-0.16-8.02 6.17-14.66 14.19-14.89h17.02c8.45-0.51 15.74-6.14 18.37-14.19l9.79-24.9a22.223 22.223 0 0 0-3.4-23.62l-12.06-12.62c-5.62-5.98-5.62-15.3 0-21.28l20.07-21.28c0.2-0.21 0.41-0.42 0.62-0.62 5.54-5.2 14.25-4.92 19.45 0.62l12.06 12.62a19.512 19.512 0 0 0 22.48 3.48l23.83-10.28a21.286 21.286 0 0 0 13.55-19.29V-48.73c-0.19-8.03 6.16-14.69 14.19-14.89h28.37c8.01 0.23 14.34 6.88 14.19 14.89v17.8c0.2 8.56 5.51 16.16 13.48 19.29l23.83 10.28c7.49 3.77 16.55 2.38 22.55-3.48l12.06-12.62 0.01-0.01c5.54-5.54 14.52-5.53 20.06 0.01l20.07 21.28c5.66 5.96 5.66 15.31 0 21.28l-12.06 12.62a22.178 22.178 0 0 0-3.33 23.62l9.79 24.97a20.78 20.78 0 0 0 18.44 14.18h17.02c8.01 0.23 14.34 6.88 14.19 14.89v29.79c0.15 8.02-6.19 14.65-14.2 14.84z m-92.29-33.21c-1.96-41.08-36.85-72.8-77.94-70.84h-0.04c-40.1 0.95-71.84 34.23-70.89 74.33 0 1.2 0.03 2.4 0.08 3.6 1.96 41.08 36.85 72.8 77.94 70.84 41.1-1.95 72.81-36.84 70.85-77.93zM869.98 160.01v-0.14h-17.02c-8.48 0.48-15.8 6.11-18.44 14.19l-9.79 24.97a22.135 22.135 0 0 0 3.33 23.62l12.06 12.55c5.66 5.97 5.66 15.31 0 21.28l-20.07 21.28c-0.2 0.21-0.41 0.42-0.62 0.62-5.54 5.2-14.25 4.92-19.45-0.62l-12.06-12.62c-6.01-5.85-15.07-7.25-22.55-3.48l-23.69 10.28a21.286 21.286 0 0 0-13.55 19.29v17.52c0.12 7.99-6.2 14.59-14.19 14.82h-28.37c-7.99-0.23-14.31-6.84-14.19-14.82v-17.52a21.275 21.275 0 0 0-13.62-19.15L634 261.8a19.48 19.48 0 0 0-22.48 3.48l-12.06 12.62c-0.2 0.21-0.41 0.42-0.62 0.62-5.54 5.2-14.25 4.92-19.45-0.62l-20.07-21.28c-5.69-5.95-5.69-15.33 0-21.28l12.06-12.62a22.065 22.065 0 0 0 3.4-23.62L565 174.13a20.73 20.73 0 0 0-18.44-14.19h-17.02c-8-0.19-14.34-6.82-14.19-14.82v-29.79c-0.16-8.02 6.17-14.66 14.19-14.89h17.02c8.45-0.51 15.74-6.14 18.37-14.19l9.79-24.9a22.223 22.223 0 0 0-3.4-23.62l-12.06-12.62c-5.62-5.98-5.62-15.3 0-21.28l20.07-21.28c0.2-0.21 0.41-0.42 0.62-0.62 5.54-5.2 14.25-4.92 19.45 0.62l12.06 12.62a19.512 19.512 0 0 0 22.48 3.48l23.83-10.28a21.286 21.286 0 0 0 13.55-19.29V-48.73c-0.19-8.03 6.16-14.69 14.19-14.89h28.37c8.01 0.23 14.34 6.88 14.19 14.89v17.8c0.2 8.56 5.51 16.16 13.48 19.29l23.83 10.28c7.49 3.77 16.55 2.38 22.55-3.48l12.06-12.62 0.01-0.01c5.54-5.54 14.52-5.53 20.06 0.01l20.07 21.28c5.66 5.96 5.66 15.31 0 21.28l-12.06 12.62a22.178 22.178 0 0 0-3.33 23.62l9.79 24.97a20.78 20.78 0 0 0 18.44 14.18h17.02c8.01 0.23 14.34 6.88 14.19 14.89v29.79c0.15 8.02-6.19 14.65-14.2 14.84z m-92.29-33.21c-1.96-41.08-36.85-72.8-77.94-70.84h-0.04c-40.1 0.95-71.84 34.23-70.89 74.33 0 1.2 0.03 2.4 0.08 3.6 1.96 41.08 36.85 72.8 77.94 70.84 41.1-1.95 72.81-36.84 70.85-77.93z"  horiz-adv-x="1024" />

    
    <glyph glyph-name="xitongjiankong" unicode="&#59039;" d="M800.529 42.829c16.521 0 29.914-13.393 29.914-29.915 0-16.52-13.393-29.914-29.914-29.914H163.77c-16.521 0-29.914 13.393-29.914 29.914 0 16.522 13.393 29.915 29.914 29.915h636.759zM784.464 816C863.184 816 927 752.125 927 673.331v-375.08c0-78.793-63.816-142.668-142.536-142.668H177.536C98.816 155.583 35 219.458 35 298.25v375.08C35 752.125 98.816 816 177.536 816h606.928z m-90.181-152.253l-0.39-0.416-160.43-174.128-110.091 83.862-0.393 0.294c-12.863 9.494-29.72 7.109-40.246-5.695l-0.317-0.391-159.56-199.719-0.356-0.453c-11.52-14.898-10.787-37.753 1.659-51.612l0.38-0.417 0.39-0.414c12.824-13.384 32.497-12.531 44.425 1.927l0.36 0.443L410.9 493.75l108.507-82.656 0.37-0.279c12.157-8.986 27.996-7.408 38.657 3.854l0.322 0.344 178.78 194.045 0.383 0.423c12.53 14.048 13.084 37.228 1.153 52.065-11.932 14.837-31.876 15.768-44.79 2.2z"  horiz-adv-x="1024" />

    
    <glyph glyph-name="liuchengguanli" unicode="&#59062;" d="M368.135 53.052c88.306-65.551 207.334-65.666 295.726-0.58 13.298 9.79 32.022 6.957 41.821-6.331 9.8-13.288 6.963-31.997-6.335-41.789-109.544-80.66-257.45-80.517-366.885 0.718-13.26 9.843-16.024 28.564-6.173 41.813 9.85 13.25 28.586 16.012 41.846 6.168z m-190.392 279.47c74.97 0 135.744-60.728 135.744-135.638s-60.775-135.638-135.744-135.638S42 121.973 42 196.884c0 74.91 60.774 135.637 135.743 135.637z m669.514 0c74.969 0 135.743-60.728 135.743-135.638s-60.774-135.638-135.743-135.638c-74.97 0-135.744 60.727-135.744 135.638 0 74.91 60.775 135.637 135.744 135.637zM734.569 691.135c122.81-51.384 200.249-176.187 192.709-309.722-0.93-16.48-15.055-29.085-31.547-28.155-16.492 0.93-29.108 15.043-28.177 31.522 6.117 108.346-56.743 209.654-156.089 251.22-15.237 6.376-22.417 23.886-16.036 39.11 6.38 15.226 23.903 22.4 39.14 16.025z m-398.095-16.024c6.38-15.225-0.8-32.735-16.037-39.11-99.346-41.567-162.206-142.875-156.089-251.22 0.931-16.48-11.684-30.593-28.177-31.523-16.492-0.93-30.616 11.676-31.547 28.155-7.54 133.535 69.899 258.338 192.709 309.722 15.237 6.375 32.76-0.8 39.14-16.024zM515.95 813c74.969 0 135.743-60.727 135.743-135.638 0-74.91-60.774-135.637-135.743-135.637s-135.743 60.727-135.743 135.637C380.208 752.273 440.982 813 515.95 813z"  horiz-adv-x="1024" />

    
    <glyph glyph-name="liucheng" unicode="&#58893;" d="M66.56 422.4c-5.12-5.12-10.24-12.8-10.24-23.04 0-7.68 2.56-15.36 10.24-23.04l158.72-163.84c5.12-2.56 12.8-7.68 23.04-7.68 7.68 0 17.92 2.56 23.04 10.24l166.4 163.84c5.12 5.12 10.24 12.8 10.24 23.04s-2.56 17.92-10.24 23.04l-166.4 161.28c-5.12 5.12-12.8 10.24-23.04 10.24-7.68 0-15.36-2.56-23.04-10.24l-158.72-163.84zM967.68 814.08c0 7.68-2.56 15.36-10.24 23.04-5.12 5.12-15.36 10.24-23.04 10.24h-253.44c-7.68 0-15.36-2.56-23.04-10.24-5.12-5.12-10.24-15.36-10.24-23.04v-64h-143.36c-7.68 0-15.36-2.56-23.04-10.24-5.12-5.12-10.24-15.36-10.24-23.04v-640c0-7.68 2.56-15.36 10.24-23.04 5.12-5.12 15.36-10.24 23.04-10.24h143.36V-51.2c0-7.68 2.56-15.36 10.24-23.04 5.12-5.12 15.36-10.24 23.04-10.24h253.44c7.68 0 15.36 2.56 23.04 10.24 5.12 5.12 10.24 15.36 10.24 23.04v207.36c0 7.68-2.56 15.36-10.24 23.04-5.12 5.12-15.36 10.24-23.04 10.24h-253.44c-7.68 0-15.36-2.56-23.04-10.24-5.12-5.12-10.24-15.36-10.24-23.04v-15.36h-64c-7.68 0-15.36 2.56-23.04 10.24-5.12 5.12-10.24 15.36-10.24 23.04V640c0 7.68 2.56 15.36 10.24 23.04 5.12 5.12 15.36 10.24 23.04 10.24h64v-64c0-7.68 2.56-15.36 10.24-23.04 5.12-5.12 15.36-10.24 23.04-10.24h253.44c7.68 0 15.36 2.56 23.04 10.24 5.12 5.12 10.24 15.36 10.24 23.04v204.8z"  horiz-adv-x="1024" />

    
    <glyph glyph-name="yanqi" unicode="&#58974;" d="M908.8 546.133c-4.267 17.067-34.133 55.467-46.933 64l55.466 42.667c21.334-12.8 46.934-64 51.2-85.333L908.8 546.133zM665.6-85.333l-21.333 68.266c25.6 8.534 55.466 21.334 76.8 34.134l34.133-59.734c-25.6-17.066-55.467-29.866-89.6-42.666z m174.933 102.4l-46.933 51.2c21.333 21.333 42.667 42.666 59.733 64L908.8 89.6c-21.333-25.6-42.667-51.2-68.267-72.533zM960 179.2l-64 29.867c12.8 25.6 21.333 55.466 29.867 81.066l68.266-17.066C985.6 243.2 972.8 209.067 960 179.2z m42.667 196.267H934.4V384c0 25.6-4.267 51.2-8.533 76.8l68.266 12.8c4.267-29.867 8.534-59.733 8.534-89.6v-8.533zM512-106.667V-38.4c17.067 0 34.133 0 46.933 4.267l8.534-68.267c-17.067-4.267-38.4-4.267-55.467-4.267z m345.6 972.8l-8.533-183.466L665.6 691.2zM529.067 704c-174.934 0-315.734-140.8-315.734-315.733s140.8-315.734 315.734-315.734c174.933 0 315.733 140.8 315.733 315.734S704 704 529.067 704zM729.6 311.467H477.867V584.533h68.266v-204.8H729.6v-68.266zM512-106.667c-273.067 0-490.667 217.6-490.667 490.667S238.933 874.667 512 874.667c93.867 0 187.733-25.6 268.8-81.067l-38.4-59.733C674.133 776.533 593.067 802.133 512 802.133c-234.667 0-422.4-187.733-422.4-422.4s187.733-422.4 422.4-422.4v-64z"  horiz-adv-x="1024" />

    
    <glyph glyph-name="chakan" unicode="&#58980;" d="M998.4-57.6L896 44.8c19.2 32 32 70.4 32 108.8 0 108.8-89.6 198.4-198.4 198.4s-198.4-89.6-198.4-198.4c0-108.8 89.6-198.4 198.4-198.4 44.8 0 83.2 12.8 115.2 38.4l102.4-102.4c12.8-12.8 38.4-12.8 51.2 0 12.8 12.8 12.8 38.4 0 51.2z m-275.2 89.6c-70.4 0-121.6 57.6-121.6 121.6 0 70.4 57.6 121.6 121.6 121.6 70.4 0 121.6-57.6 121.6-121.6 6.4-70.4-51.2-121.6-121.6-121.6zM211.2-128c-51.2 0-160 32-160 140.8V697.6c0 128 83.2 192 160 192H768c96 0 160-64 160-166.4v-230.4c0-19.2-12.8-44.8-38.4-44.8-32 6.4-44.8 19.2-44.8 44.8V710.4c0 70.4-64 96-89.6 96H211.2C179.2 806.4 128 768 128 684.8v-640c0-96 64-96 89.6-96h192c25.6 6.4 38.4-19.2 38.4-38.4s-12.8-38.4-44.8-38.4h-192zM268.8 716.8H704c19.2 0 32-12.8 32-32s-12.8-32-32-32H268.8c-19.2 0-32 12.8-32 32s6.4 32 32 32zM268.8 531.2H704c19.2 0 32-12.8 32-32s-12.8-32-32-32H268.8c-19.2 0-32 12.8-32 32 0 12.8 6.4 32 32 32zM268.8 339.2h185.6c19.2 0 32-12.8 32-32s-19.2-32-32-32H268.8c-19.2 0-32 12.8-32 32s6.4 32 32 32z"  horiz-adv-x="1024" />

    
    <glyph glyph-name="liucheng1" unicode="&#58894;" d="M608 128a64 64 0 0 0 64-64v-64a64 64 0 0 0-64-64h-192a64 64 0 0 0-64 64v64a64 64 0 0 0 64 64h192zM288 416a32 32 0 0 0 0-64H128v-288l64 2.624V128l128-96-128-96v64H128a64 64 0 0 0-64 64v288a64 64 0 0 0 64 64h160z m224 128l160-128v-64.192L512 224l-160 127.808V416l160 128z m384 224a64 64 0 0 0 64-64v-288a64 64 0 0 0-64-64h-64v-64l-128 96 128 96v-61.376L896 416V704h-160a32 32 0 0 0 0 64h160z m-288 64a64 64 0 0 0 64-64v-64a64 64 0 0 0-64-64h-192a64 64 0 0 0-64 64V768a64 64 0 0 0 64 64h192z"  horiz-adv-x="1024" />

    
    <glyph glyph-name="xitongpeizhi" unicode="&#58936;" d="M839.909965 254.127864l-11.667803 8.750853a87.508528 87.508528 0 0 0-36.461887 94.071668 274.922625 274.922625 0 0 1-236.273025 303.362897 281.485765 281.485765 0 0 1-320.135365-242.106928 277.839576 277.839576 0 0 1 328.15698-309.196798 45.941977 45.941977 0 0 0 48.858928-16.043231c10.209328-10.209328 22.60637-18.960181 37.920362-32.08646-43.025026-21.877132-43.754264-56.880543-41.566551-93.34243s-3.646189-72.923773-39.378838-83.133101a127.616603 127.616603 0 0 0-118.136512 4.375426A113.761086 113.761086 0 0 0 419.139793-55.068934a251.587018 251.587018 0 0 0 0 52.505116 59.797494 59.797494 0 0 1-39.378837 59.068257 59.068256 59.068256 0 0 1-72.923773-13.126279c-13.126279-12.397041-24.794083-24.794083-37.920363-36.461887a72.923773 72.923773 0 0 0-86.050052-11.667804 327.427742 327.427742 0 0 0-59.797494 59.068257 72.923773 72.923773 0 0 0 11.667804 85.320814c11.667804 13.126279 24.794083 24.794083 37.191124 37.191125a61.25597 61.25597 0 0 1 16.04323 64.902158 61.985207 61.985207 0 0 1-53.234354 44.483502 573.910096 573.910096 0 0 1-61.25597 0 68.548347 68.548347 0 0 0-72.923773 72.923773 381.391334 381.391334 0 0 0 0 40.837313 72.923773 72.923773 0 0 0 72.923773 72.923773h49.588166a62.714445 62.714445 0 0 1 59.797494 40.108076 61.25597 61.25597 0 0 1-16.04323 72.923773c-11.667804 10.938566-21.877132 21.877132-32.815698 33.544936a66.360634 66.360634 0 0 0-13.126279 15.313992C103.379855 674.168799 117.235372 717.193825 171.198964 761.677327a72.923773 72.923773 0 0 0 101.364045-3.646189l37.191125-36.461887a61.985207 61.985207 0 0 1 72.923773-12.397041 56.151305 56.151305 0 0 1 37.191124 56.880543V821.474821A72.923773 72.923773 0 0 0 480.395763 892.940118a218.77132 218.77132 0 0 0 72.923773 0 72.923773 72.923773 0 0 0 58.339019-67.089871v-58.339019a64.17292 64.17292 0 0 1 40.837313-58.339018 60.526732 60.526732 0 0 1 72.923773 16.04323l18.230944 21.877132a182.309433 182.309433 0 0 0 17.501705 16.04323c39.378838 29.898747 81.674626 17.501706 129.804317-37.191124a72.923773 72.923773 0 0 0-5.104664-104.280996c-11.667804-12.397041-25.523321-24.794083-35.732649-37.920362a61.25597 61.25597 0 0 1-10.209329-72.923774 63.443683 63.443683 0 0 1 59.797494-35.732648H951.483339a72.923773 72.923773 0 0 0 72.923773-62.714446 242.106927 242.106927 0 0 0 0-64.902158 72.923773 72.923773 0 0 0-72.923773-62.714445h-35.003412a78.757675 78.757675 0 0 1-72.923773-32.815698zM316.317273 434.249584l72.923773-72.923773a103.551758 103.551758 0 0 1 153.869162 0 100.634807 100.634807 0 0 1 0 153.869162c-24.794083 24.064845-51.046641 47.400453-72.923773 72.923773a189.601811 189.601811 0 0 0 171.370867-26.981796A206.374278 206.374278 0 0 0 713.751838 309.549932a32.08646 32.08646 0 0 1 9.48009-37.920362c61.25597-59.068256 121.782701-118.136513 181.580196-177.934007a66.360634 66.360634 0 0 0 0-106.468709 64.902158 64.902158 0 0 0-99.176332 5.833902c-60.526732 59.068256-121.053464 118.86575-180.850958 179.392482a36.461887 36.461887 0 0 1-44.483502 10.938566A199.811139 199.811139 0 0 0 368.093152 230.063019a209.291229 209.291229 0 0 0-60.526732 198.352664l8.750853 5.833901z m539.635923-355.868013a35.732649 35.732649 0 1 1 0-72.923773 35.003411 35.003411 0 0 1 35.732648 35.003411c-0.729238 26.981796-13.126279 36.461887-35.732648 37.920362z"  horiz-adv-x="1029" />

    
    <glyph glyph-name="shujuku" unicode="&#58905;" d="M512 96c-247.42 0-448 71.63-448 160v-160c0-88.37 200.58-160 448-160s448 71.63 448 160V256c0-88.37-200.58-160-448-160zM512 288c-247.42 0-448 71.63-448 160v-160c0-88.37 200.58-160 448-160s448 71.63 448 160V448c0-88.37-200.58-160-448-160zM512 480c-247.42 0-448 71.63-448 160v-160c0-88.37 200.58-160 448-160s448 71.63 448 160V640c0-88.37-200.58-160-448-160zM64 672a448 160 0 1 1 896 0 448 160 0 1 1-896 0Z"  horiz-adv-x="1024" />

    
    <glyph glyph-name="shujuku1" unicode="&#58883;" d="M858.2 129.7V279.3c-22.1-19.3-47-35.2-73.7-47.2-86.5-38-180-57.2-274.5-56.3-122-7.1-242.8 27-343.1 96.7v-150.7C173.7 56 318.8-16 512.3-16c193.5 0 337.5 72.6 345.9 138.9v6.8zM858.2 389v2.8-6.8c-8.4-66.4-152.4-138.9-345.9-138.9-193.5 0-338.6 72-345.4 137.8V534.7C267.2 464.9 388 430.9 510 438c94.5-0.9 188 18.2 274.5 56.3 26.7 12.1 51.6 28 73.7 47.2V389zM762.6 735.5c57.4-25.3 91.7-61.3 91.7-93.4 0-31.5-35.4-66.4-91.7-93.4-80-34-166.2-50.7-253.1-48.9-196.9 0-343.7 74.8-343.7 141.7s147.4 142.3 344.8 142.3c86.5 1.9 172.3-14.6 252-48.3z"  horiz-adv-x="1024" />

    
    <glyph glyph-name="wendang" unicode="&#59064;" d="M521.563 843v-250.814l0.013-1.56c0.833-51.385 42.756-92.783 94.35-92.783H876v-407.285C876 20.662 819.326-36 749.415-36h-494.83C184.674-36 128 20.662 128 90.558V716.442C128 786.338 184.674 843 254.585 843h266.978z m143.052-643.143l-382.056-1.15-0.706-0.01c-16.197-0.425-29.172-13.71-29.124-29.994 0.05-16.355 13.219-29.606 29.516-29.82l0.495-0.003 382.055 1.15 0.706 0.01c16.197 0.424 29.173 13.71 29.124 29.994-0.05 16.52-13.486 29.873-30.01 29.823zM488.449 411.554H282.203l-0.706-0.009c-16.198-0.375-29.214-13.62-29.214-29.905 0-16.356 13.13-29.645 29.425-29.91l0.495-0.004H488.45l0.706 0.009c16.198 0.375 29.214 13.62 29.214 29.905 0 16.52-13.396 29.914-29.92 29.914z m71.703 422.552l0.574-0.535 299.147-286.514a30.11 30.11 0 0 0 3.384-3.841 46.18 46.18 0 0 0 6.458-8.556H615.926l-0.951 0.007c-31.34 0.508-56.587 26.066-56.587 57.519V835.592c0.602-0.469 1.19-0.964 1.764-1.486z"  horiz-adv-x="1024" />

    
    <glyph glyph-name="zhishiku" unicode="&#59040;" d="M117.66113281 121.11035156000003v-87.59179687h175.17480469v87.59179687H117.66113281z m175.17480469 525.53320313v87.59179687H117.66113281v-87.59179687h175.17480469zM117.66113281 602.84765625h175.17480469v-437.95019531H117.66113281V602.84765625zM736.859375 22.787109370000053l-22.66699219 84.60351563 169.20703125 45.34277344 22.66699219-84.60351563-169.20703125-45.34277343z m-147.34863281 549.93164063L758.70898438 618.05273438 872.06152344 195.03515625l-169.20703125-45.34277344-113.34375 423.02636719z m-34.02246094 126.90527344l169.22460938 45.34277343 22.66699218-84.60351562-169.20703125-45.34277344-22.68457031 84.60351563zM380.41894531 121.11035156000003h175.18359375v-87.59179687H380.41894531v87.59179687z m0 481.73730469h175.18359375v-437.95019531H380.41894531V602.84765625z m0 131.38769531h175.18359375v-87.59179687H380.41894531v87.59179687z"  horiz-adv-x="1024" />

    
    <glyph glyph-name="system-copy" unicode="&#58892;" d="M1020.586667 245.76c1.706667-8.533333 1.706667-18.773333-1.706667-32.426667-1.706667-11.946667-5.12-25.6-10.24-37.546666-5.12-11.946667-11.946667-23.893333-18.773333-34.133334-6.826667-10.24-15.36-17.066667-23.893334-22.186666-8.533333-5.12-17.066667-6.826667-22.186666-6.826667-6.826667 0-13.653333 1.706667-22.186667 5.12-6.826667 1.706667-17.066667 3.413333-27.306667 6.826667-10.24 1.706667-22.186667 1.706667-34.133333 1.706666-11.946667-1.706667-22.186667-3.413333-34.133333-6.826666s-20.48-10.24-29.013334-18.773334c-17.066667-18.773333-27.306667-39.253333-30.72-63.146666-3.413333-23.893333 0-46.08 10.24-66.56 6.826667-15.36 6.826667-29.013333-3.413333-44.373334-5.12-5.12-11.946667-11.946667-20.48-18.773333-10.24-6.826667-20.48-11.946667-30.72-17.066667-11.946667-5.12-23.893333-8.533333-35.84-11.946666-11.946667-3.413333-23.893333-5.12-32.426667-5.12-6.826667 0-11.946667 1.706667-18.773333 6.826666-5.12 5.12-10.24 10.24-11.946667 17.066667h-1.706666c-8.533333 22.186667-22.186667 42.666667-40.96 58.026667-18.773333 17.066667-42.666667 23.893333-68.266667 23.893333s-47.786667-8.533333-68.266667-23.893333c-20.48-17.066667-34.133333-35.84-42.666666-58.026667-3.413333-8.533333-8.533333-15.36-17.066667-18.773333-6.826667-3.413333-15.36-6.826667-23.893333-6.826667-10.24 0-22.186667 1.706667-34.133334 5.12-13.653333 3.413333-25.6 8.533333-39.253333 13.653333-11.946667 5.12-23.893333 11.946667-34.133333 18.773334-10.24 6.826667-17.066667 15.36-22.186667 22.186666-3.413333 5.12-5.12 11.946667-6.826667 18.773334 0 6.826667 1.706667 17.066667 8.533334 29.013333 8.533333 17.066667 11.946667 35.84 8.533333 58.026667-1.706667 22.186667-11.946667 40.96-27.306667 59.733333-10.24 10.24-22.186667 18.773333-37.546666 22.186667-15.36 3.413333-29.013333 5.12-40.96 3.413333-15.36 0-30.72-3.413333-47.786667-8.533333-10.24-3.413333-20.48-1.706667-30.72 1.706666-6.826667 5.12-15.36 11.946667-22.186667 22.186667-6.826667 10.24-13.653333 22.186667-18.773333 35.84-5.12 11.946667-10.24 25.6-11.946667 39.253333-3.413333 13.653333-3.413333 23.893333-1.706666 34.133334 1.706667 15.36 10.24 25.6 22.186666 30.72 22.186667 8.533333 40.96 23.893333 59.733334 42.666666 17.066667 20.48 25.6 42.666667 25.6 68.266667s-8.533333 47.786667-25.6 66.56-37.546667 32.426667-59.733334 40.96c-6.826667 1.706667-11.946667 6.826667-17.066666 15.36-5.12 8.533333-6.826667 17.066667-6.826667 25.6 0 10.24 1.706667 20.48 5.12 32.426667 3.413333 11.946667 6.826667 23.893333 11.946667 34.133333 5.12 10.24 10.24 20.48 17.066666 30.72 6.826667 8.533333 13.653333 15.36 20.48 20.48 5.12 3.413333 11.946667 5.12 17.066667 5.12 5.12 0 11.946667-1.706667 18.773333-5.12 22.186667-8.533333 44.373333-11.946667 68.266667-8.533333 23.893333 3.413333 44.373333 13.653333 63.146667 30.72 8.533333 8.533333 15.36 18.773333 18.773333 32.426666 3.413333 11.946667 6.826667 25.6 6.826667 37.546667 1.706667 11.946667 1.706667 23.893333 0 34.133333-1.706667 10.24-1.706667 17.066667-3.413334 22.186667-1.706667 5.12-3.413333 10.24-3.413333 15.36-1.706667 5.12 0 10.24 1.706667 15.36 3.413333 10.24 11.946667 18.773333 22.186666 27.306667 11.946667 6.826667 23.893333 13.653333 37.546667 18.773333 13.653333 5.12 25.6 8.533333 39.253333 11.946667 11.946667 1.706667 20.48 3.413333 29.013334 3.413333 10.24 0 17.066667-3.413333 22.186666-8.533333 5.12-6.826667 8.533333-11.946667 11.946667-18.773334 8.533333-20.48 20.48-37.546667 39.253333-52.906666 18.773333-15.36 39.253333-22.186667 64.853334-22.186667s47.786667 6.826667 68.266666 22.186667c20.48 13.653333 34.133333 32.426667 40.96 54.613333 3.413333 5.12 6.826667 11.946667 13.653334 18.773333 6.826667 3.413333 11.946667 6.826667 18.773333 6.826667 10.24 0 22.186667-1.706667 34.133333-5.12 11.946667-3.413333 23.893333-6.826667 35.84-11.946667 11.946667-5.12 22.186667-11.946667 32.426667-20.48 10.24-8.533333 17.066667-17.066667 23.893333-25.6 3.413333-5.12 5.12-11.946667 3.413334-18.773333-1.706667-6.826667-3.413333-11.946667-5.12-15.36-10.24-20.48-11.946667-44.373333-8.533334-66.56 3.413333-23.893333 13.653333-44.373333 32.426667-61.44 17.066667-17.066667 39.253333-27.306667 64.853333-29.013333 25.6-1.706667 49.493333 1.706667 71.68 11.946666 5.12 3.413333 13.653333 5.12 22.186667 5.12s15.36-3.413333 22.186667-10.24c10.24-10.24 20.48-25.6 29.013333-46.08 8.533333-20.48 13.653333-42.666667 17.066667-63.146666 1.706667-11.946667 0-22.186667-6.826667-29.013334-5.12-6.826667-11.946667-11.946667-17.066667-13.653333-22.186667-8.533333-42.666667-22.186667-58.026666-42.666667-15.36-20.48-23.893333-42.666667-23.893334-68.266666s6.826667-46.08 20.48-64.853334c13.653333-18.773333 30.72-32.426667 52.906667-39.253333 5.12-3.413333 10.24-5.12 13.653333-8.533333 5.12-8.533333 10.24-17.066667 13.653334-27.306667z m-510.293334-97.28c32.426667 0 63.146667 6.826667 93.866667 18.773333s54.613333 29.013333 76.8 51.2c22.186667 22.186667 39.253333 47.786667 51.2 76.8 11.946667 29.013333 18.773333 59.733333 18.773333 92.16 0 32.426667-6.826667 63.146667-18.773333 92.16-11.946667 29.013333-29.013333 54.613333-51.2 75.093334-22.186667 22.186667-47.786667 39.253333-76.8 51.2-29.013333 11.946667-59.733333 18.773333-93.866667 18.773333-32.426667 0-63.146667-6.826667-92.16-18.773333-29.013333-11.946667-54.613333-29.013333-75.093333-51.2-22.186667-22.186667-39.253333-46.08-51.2-75.093334-11.946667-29.013333-18.773333-59.733333-18.773333-92.16 0-32.426667 6.826667-63.146667 18.773333-92.16 11.946667-29.013333 29.013333-54.613333 51.2-76.8 22.186667-22.186667 46.08-39.253333 75.093333-51.2 29.013333-13.653333 59.733333-18.773333 92.16-18.773333zM512 385.706667m-66.56 0a66.56 66.56 0 1 1 133.12 0 66.56 66.56 0 1 1-133.12 0Z"  horiz-adv-x="1028" />

    
    <glyph glyph-name="zhishi" unicode="&#58938;" d="M476 725.6c-6.7 3.3-13.7 6.3-21.1 8.7-83.5 26.6-209.4 55.8-335.2 44.1-19.5-1.8-34.4-18.2-34.4-37.7v-691.6c0-10.5 4.4-20.6 12.1-27.8 7.7-7.2 18.1-10.9 28.6-10 121.5 9.1 242.3-10 349.2-55.1l0.7-0.3V725.6zM908 778.3c-125.7 11.7-251.7-17.5-335.2-44.1-7.4-2.4-14.3-5.4-21.1-8.7v-769.7l0.7 0.3c106.9 45.1 227.7 64.2 349.2 55.1 10.5-0.8 20.9 2.8 28.6 10 7.7 7.2 12.1 17.2 12.1 27.8V740.6c0.1 19.6-14.8 35.9-34.3 37.7z"  horiz-adv-x="1024" />

    
    <glyph glyph-name="jiankong" unicode="&#58919;" d="M564.1 160.8c149.2 24.3 263.1 153.6 263.1 309.6 0 176.5-145.7 319-323.3 313.8-169-4.9-307.3-150-304.5-319.1 2.6-153.1 114.8-279.3 261.5-304 8.2-1.4 14.3-8.2 14.3-16.5V123c0-9.4-7.6-16.9-16.9-16.9H327c-9.3 0-16.8-7.5-16.8-16.8v-40.9c0-9.3 7.5-16.8 16.8-16.8h372.6c9.3 0 16.8 7.5 16.8 16.8v40.9c0 9.3-7.5 16.8-16.8 16.8h-133c-9.4 0-16.9 7.6-16.9 16.9v21.3c0 8.4 6.1 15.2 14.4 16.5z m-50.9 30.4c-133.5 0-242 108.6-242 242s108.6 242 242 242c133.5 0 242-108.6 242-242s-108.5-242-242-242zM343.933288 405.738173a171.5 171.5 0 1 1 338.575288 54.916069 171.5 171.5 0 1 1-338.575288-54.916069Z"  horiz-adv-x="1024" />

    
    <glyph glyph-name="jiagebiangeng" unicode="&#59077;" d="M0.870242 189.43076099999996m35.889986 0l210.17033 0q35.889986 0 35.889986-35.889985l0-245.406691q0-35.889986-35.889986-35.889986l-210.17033 0q-35.889986 0-35.889986 35.889986l0 245.406691q0 35.889986 35.889986 35.889985ZM370.941155 306.90510200000006m42.010298 0l197.929706 0q42.010298 0 42.010298-42.010298l0-350.640407q0-42.010298-42.010298-42.010298l-197.929706 0q-42.010298 0-42.010298 42.010298l0 350.640407q0 42.010298 42.010298 42.010298ZM973.583928 447.909963h-183.312261a48.546554 48.546554 0 0 1-49.31902-47.536405v-480.830736a48.546554 48.546554 0 0 1 49.31902-47.536405h183.312261a48.546554 48.546554 0 0 1 49.31902 47.536405V400.492399a48.546554 48.546554 0 0 1-49.31902 47.417564zM1022.902948 676.144127V896h-219.855872l74.275632-74.275633-247.070464-247.545828L435.709507 769.434322a65.362557 65.362557 0 0 1-4.575379 5.288425l-0.653626 0.653626a54.369763 54.369763 0 0 1-76.949555 0L16.735518 437.154851a54.904548 54.904548 0 0 1 0-77.246658l0.653625-0.653625a54.429184 54.429184 0 0 1 76.890135 0l297.102531 298.647464 195.374624-196.08767 2.3174-2.139139 1.010149-1.069569 2.139138-2.139138a53.478456 53.478456 0 0 1 75.404622 0l286.644522 287.832932zM1022.902948 675.787604l-0.118841 0.118841v-0.118841h0.118841z"  horiz-adv-x="1024" />

    
    <glyph glyph-name="iconfonticon-baobia" unicode="&#58923;" d="M979.2 6.399999999999977H108.8c-19.2 0-32 12.8-32 32V793.6c0 19.2-12.8 32-32 32s-32-12.8-32-32v-787.2c0-32 25.6-64 64-64h896c19.2 0 32 12.8 32 32s-12.8 32-25.6 32zM172.8 256h64c6.4 0 19.2 6.4 25.6 19.2l64 108.8 96-217.6 19.2-19.2c12.8-6.4 32 6.4 38.4 19.2l128 422.4 89.6-307.2c0-12.8 12.8-25.6 32-25.6h160c12.8-19.2 32-32 51.2-32 32 0 64 25.6 64 64s-25.6 64-64 64c-25.6 0-44.8-12.8-51.2-32H748.8L633.6 710.4c0 12.8-19.2 25.6-38.4 19.2-6.4 0-12.8-6.4-12.8-6.4s-6.4-6.4-6.4-12.8L441.6 268.79999999999995l-83.2 192c0 6.4-6.4 6.4-6.4 12.8-6.4 6.4-19.2 6.4-32 0-6.4 0-12.8-6.4-12.8-12.8L217.6 320h-44.8c-19.2 0-32-12.8-32-32 0-12.8 12.8-32 32-32z"  horiz-adv-x="1024" />

    
    <glyph glyph-name="weiguichuli" unicode="&#58929;" d="M581.370647 807.912727l498.920728-861.090909H79.098647L581.836102 807.912727h-0.465455z m1.303273 87.086546a82.013091 82.013091 0 0 1-71.68-41.611637L11.095738-3.141817999999944a83.618909 83.618909 0 0 1 0-83.246546A82.688 82.688 0 0 1 82.799011-128h997.934545c29.556364 0 56.878545 15.872 71.68 41.611636a83.642182 83.642182 0 0 1 0 83.246546L654.121193 853.387636a81.524364 81.524364 0 0 1-71.447273 41.611637zM581.836102 197.81818199999998c-25.6 0-27.927273 22.248727-27.927273 49.454545l-18.618182 296.727273c0 27.322182 20.829091 49.454545 46.545455 49.454545s46.545455-22.132364 46.545454-49.454545l-18.618181-296.727273C609.763375 220.066909 607.436102 197.81818199999998 581.836102 197.81818199999998zM535.290647 81.45454500000005a46.545455 46.545455 0 1 1 93.067637 0A46.545455 46.545455 0 0 1 535.290647 81.45454500000005z"  horiz-adv-x="1163" />

    
    <glyph glyph-name="gongyingshang" unicode="&#58918;" d="M469.12 260.544c-9.386667 7.573333-15.04 17.066667-15.04 30.336 0 20.864 16.896 37.930667 37.546667 37.930667 20.672 0 37.546667-17.066667 37.546666-37.930667 0-13.269333-5.610667-22.762667-14.997333-30.336l50.688-180.16c3.754667-13.269333 0-26.538667-9.386667-36.010667l-50.688-51.2a18.026667 18.026667 0 0 0-26.304 0l-50.688 51.2c-9.386667 9.472-13.141333 22.741333-9.386666 36.010667l50.688 180.16z m-142.634667 161.386667c-60.394667 49.28-100.032 123.242667-100.032 208.597333C226.453333 776.533333 345.344 896 490.666667 896c145.301333 0 264.213333-119.466667 264.213333-265.472 0-83.456-39.637333-159.296-100.032-208.597333C843.562667 366.933333 981.333333 192.469333 981.333333-14.229333 981.333333-76.8 930.368-128 868.096-128H113.237333C50.944-128 0-76.8 0-14.229333c0 206.72 137.770667 381.162667 326.485333 436.16z m165.973334 6.442666a202.666667 202.666667 0 1 1 0 405.333334 202.666667 202.666667 0 0 1 0-405.333334zM878.549333-64c21.333333 0 38.784 18.346667 38.784 40.746667C917.333333 200.704 742.784 384 529.450667 384h-77.568C238.549333 384 64 200.725333 64-23.253333 64-45.653333 81.450667-64 102.784-64h775.765333zM853.333333 128m-256 0a256 256 0 1 1 512 0 256 256 0 1 1-512 0ZM777.472 256l20.906667-6.570667a499.242667 499.242667 0 0 0-30.464-63.914666v-201.002667h-21.802667v167.552c-9.258667-13.44-19.413333-25.685333-29.568-36.138667A184.170667 184.170667 0 0 1 704 137.728c29.269333 28.373333 56.746667 73.173333 73.472 118.272z m63.616-195.626667l21.205333-6.570666c-14.933333-25.984-37.034667-51.968-57.045333-68.992-3.882667 3.882667-12.544 11.050667-17.621333 13.738666 20.309333 15.530667 40.917333 38.826667 53.461333 61.824z m67.498667-10.752c19.712-19.712 41.813333-47.488 51.669333-66.005333l18.816 12.245333c-10.453333 17.621333-32.554667 44.202667-53.162667 63.616l-17.322666-9.856z m-51.968 122.154667v-72.874667h58.24v72.874667h-58.24z m79.744-72.874667h45.994666v-21.802666h-192.938666v21.802666h45.696v72.874667H796.586667V193.28h38.528v60.032h21.504v-60.032h58.24v60.330667h21.504v-60.330667h42.410666v-21.504h-42.410666v-72.874667z"  horiz-adv-x="1109" />

    
    <glyph glyph-name="gongyingshangguanli" unicode="&#58904;" d="M1023.779037 51.608022000000005H970.411669v75.38192h43.271393v59.388092H970.411669v70.374889h-64.989004v-70.374889h-53.326411v70.374889H787.127729v-70.374889h-43.445461v-59.388092h43.445461v-75.38192h-51.708598v-59.388092h75.044023l-6.645323-6.379101a646.65441 646.65441 0 0 0-71.675284-70.548958l51.708598-43.291871c12.205277 11.734268 29.448302 29.499499 51.708597 52.957795 13.311124 13.802612 23.878109 25.014674 31.598561 33.636187l-51.708598 33.636187h115.090028l-45.053036-35.192564q31.506407-32.079809 85.09904-81.761021l51.708598 43.291872a165.539188 165.539188 0 0 0-26.755359 23.980502c-24.420793 21.389953-43.445461 37.946943-56.736107 49.681211h85.09904v59.388092z m-118.315414 0h-53.326412v75.38192h53.326412zM686.96664 258.258104a519.072405 519.072405 0 0 0-68.408939-160.245456c1.023933-11.734268 3.409696-30.359602 6.645323-56.060311 1.075129-16.045024 2.150259-28.291258 3.409695-36.912771a871.694323 871.694323 0 0 1 28.362934 38.469149v-169.91138h64.999243V160.45205999999996a647.248291 647.248291 0 0 1 33.390443 81.76102zM309.207176 511.82478a85.887469 85.887469 0 1 1 85.826033 82.457294 84.18774 84.18774 0 0 1-85.826033-82.457294zM826.108844 363.825558a317.63414 317.63414 0 0 0 89.409797-12.76844V769.190245A129.435323 129.435323 0 0 1 783.554204 895.973583H131.995157A129.435323 129.435323 0 0 1 0.03072 769.190245v-738.624039A129.435323 129.435323 0 0 1 131.995157-96.217131h428.003837l4.484825 5.518997a286.373477 286.373477 0 0 0-47.582149 157.685624c0.215026 163.839459 138.45617 296.838068 309.207174 296.838068z m-392.299307-76.242023h-74.511577c-36.810378 127.131475-149.023154 80.55278-149.023154 80.552779l-39.503321 62.275582c101.625313 92.624945 0 160.757422 0 160.757423s1.259437 1.894275 38.776329 62.101513c129.814178-34.670359 150.098284 82.457294 150.098283 82.457295h73.610517c23.70404-116.953584 150.815036-82.795192 150.815036-82.795192s-0.542684-1.023933 36.267694-60.03317c-95.870812-84.699707-0.542684-163.696109-0.542685-163.696109s-0.542684-0.522206-36.452001-59.510964c-126.148499 34.670359-149.535121-82.109157-149.535121-82.109157z"  horiz-adv-x="1024" />

    
    <glyph glyph-name="fenchengbili" unicode="&#59365;" d="M513.024 892.416c-22.528 0-40.96-18.432-40.96-40.96v-61.44h-10.24c-251.392 0-455.68-204.288-455.68-455.68s204.288-455.68 455.68-455.68c52.736 0 104.448 8.704 153.6 26.624 21.504 7.68 32.256 31.232 24.576 52.224-7.68 21.504-31.232 32.256-52.224 24.576-40.448-14.336-82.432-21.504-125.952-21.504-206.336 0-373.76 167.424-373.76 373.76 0 209.408 173.568 379.392 384 373.76V378.88c2.048-20.48 19.456-36.864 40.96-36.864h322.56v-7.68c0-74.752-22.016-146.944-64-208.896-12.8-18.944-7.68-44.032 11.264-56.832s44.032-7.68 56.832 11.264c50.688 75.264 77.824 163.328 77.824 254.976v7.68h61.44c21.504 0 39.424 16.896 40.96 38.4v5.12c0 279.04-227.328 506.368-506.88 506.368z m360.96-468.48h-319.488V808.448c202.752-19.456 364.032-181.76 382.464-384.512h-62.976z"  horiz-adv-x="1024" />

    
    <glyph glyph-name="buhegepinunqualified" unicode="&#58917;" d="M823.893333 469.333333H200.106667C148.693333 469.333333 106.666667 511.36 106.666667 562.773333V695.893333C106.666667 747.3066670000001 148.693333 789.333333 200.106667 789.333333h623.786666C875.306667 789.333333 917.333333 747.3066670000001 917.333333 695.893333v-133.12c0-51.413333-42.026667-93.44-93.44-93.44zM200.106667 725.333333C183.893333 725.333333 170.666667 712.106667 170.666667 695.893333v-133.12c0-16.213333 13.226667-29.44 29.44-29.44h623.786666c16.213333 0 29.44 13.226667 29.44 29.44V695.893333C853.333333 712.106667 840.106667 725.333333 823.893333 725.333333H200.106667zM755.2-21.33333300000004H268.8A98.133333 98.133333 0 0 0 170.666667 76.79999999999995V482.346667A50.986667 50.986667 0 0 0 221.653333 533.333333H802.133333a50.986667 50.986667 0 0 0 50.986667-50.986666V76.79999999999995C853.333333 22.61333300000001 809.386667-21.33333300000004 755.2-21.33333300000004zM234.666667 469.333333v-392.533333c0-18.773333 15.36-34.133333 34.133333-34.133333h486.4c18.773333 0 34.133333 15.36 34.133333 34.133333V469.333333H234.666667zM391.04 96c-8.106667 0-16.426667 3.2-22.613333 9.386667a31.786667 31.786667 0 0 0 0 45.226666l248.96 248.96a31.786667 31.786667 0 0 0 45.226666 0c12.586667-12.586667 12.586667-32.853333 0-45.226666L413.653333 105.38666699999999c-6.186667-6.186667-14.506667-9.386667-22.613333-9.386667zM640 96c-8.106667 0-16.426667 3.2-22.613333 9.386667L368.426667 354.346667a31.786667 31.786667 0 0 0 0 45.226666 31.786667 31.786667 0 0 0 45.226666 0l248.96-248.96c12.586667-12.586667 12.586667-32.853333 0-45.226666-6.186667-6.186667-14.506667-9.386667-22.613333-9.386667z"  horiz-adv-x="1024" />

    
    <glyph glyph-name="jiageguanli" unicode="&#58903;" d="M620 830c48.601 0 88-39.399 88-88v-804H152c-48.601 0-88 39.399-88 88V742c0 48.601 39.399 88 88 88h468z m0.562-54H152c-18.59 0-33.695-14.92-34-33.438V26c0-18.59 14.92-33.695 33.438-34H654V742c0 18.404-14.622 33.393-32.883 33.982l-0.555 0.018zM871 422c48.601 0 88-39.399 88-88v-308c0-48.601-39.399-88-88-88H654V422h217zM708-8h163c18.59 0 33.695 14.92 33.995 33.438L905 26V334c0 18.59-14.92 33.695-33.438 33.995L871 368H708v-376zM545 105c14.912 0 27-12.088 27-27s-12.088-27-27-27H227c-14.912 0-27 12.088-27 27s12.088 27 27 27h318z m0 138c14.912 0 27-12.088 27-27s-12.088-27-27-27H227c-14.912 0-27 12.088-27 27s12.088 27 27 27h318zM473.388 675.379c10.544 10.544 27.64 10.544 38.184 0 10.544-10.544 10.544-27.64 0-38.184L451.376 577H545c14.912 0 27-12.088 27-27s-12.088-27-27-27H413v-84h132c14.912 0 27-12.088 27-27s-12.088-27-27-27H412.999l0.001-65c0-14.912-12.088-27-27-27s-27 12.088-27 27l-0.001 65H227c-14.912 0-27 12.088-27 27s12.088 27 27 27h132v84H227c-14.912 0-27 12.088-27 27s12.088 27 27 27h93.123l-60.195 60.195c-10.544 10.544-10.544 27.64 0 38.184 10.545 10.544 27.64 10.544 38.184 0l87.638-87.638z"  horiz-adv-x="1024" />

    
    <glyph glyph-name="riqi" unicode="&#58890;" d="M233.944615 812.819692V848.896c0 25.993846 21.346462 47.104 47.812923 47.104 26.387692 0 47.812923-21.110154 47.812924-47.104v-36.076308h299.559384V848.896c0 25.993846 21.425231 47.104 47.812923 47.104 26.466462 0 47.812923-21.110154 47.812923-47.104v-36.076308h62.227693c97.122462 0 176.128-77.902769 176.128-173.607384V532.0861540000001a46.710154 46.710154 0 0 0 0-18.589539v-401.723077c0-95.940923-79.163077-173.843692-176.20677-173.843692l-621.252923 0.787692C76.327385-53.01169200000004 6.144 21.346461999999974 6.144 111.53723100000002v527.753846c0 95.625846 79.005538 173.528615 176.285538 173.528615h51.515077z m0-70.892307h-51.515077C124.770462 742.006154 77.981538 695.926154 77.981538 639.212308v-69.316923a49.309538 49.309538 0 0 0 2.993231 0h810.299077v69.316923c0 56.713846-46.788923 102.872615-104.369231 102.872615h-62.227692v-54.429538c0-25.993846-21.346462-47.261538-47.812923-47.261539a47.497846 47.497846 0 0 0-47.812923 47.104v54.587077H329.570462v-54.429538c0-25.993846-21.425231-47.261538-47.812924-47.261539a47.497846 47.497846 0 0 0-47.812923 47.104v54.587077z m657.408-266.31877H81.132308l-2.993231 0.07877v-364.150154c0-56.713846 46.867692-102.793846 104.369231-102.793846H786.904615c57.580308 0 104.369231 46.158769 104.369231 102.793846V475.608615z m-383.606153-347.923692h-45.686154a47.497846 47.497846 0 0 0-47.812923 47.182769c0 25.993846 21.346462 47.104 47.812923 47.104h45.686154c26.387692 0 47.812923-21.110154 47.812923-47.104a47.419077 47.419077 0 0 0-47.812923-47.182769z m-213.464616 148.164923h-45.686154a47.497846 47.497846 0 0 0-47.812923 47.182769c0 25.993846 21.346462 47.104 47.812923 47.104h45.686154c26.387692 0 47.812923-21.110154 47.812923-47.104 0-26.072615-21.425231-47.182769-47.812923-47.182769z m213.464616 0h-45.686154a47.497846 47.497846 0 0 0-47.812923 47.182769c0 25.993846 21.346462 47.104 47.812923 47.104h45.686154c26.387692 0 47.812923-21.110154 47.812923-47.104 0-26.072615-21.425231-47.182769-47.812923-47.182769z m212.91323 0h-45.686154a47.497846 47.497846 0 0 0-47.812923 47.182769c0 25.993846 21.425231 47.104 47.812923 47.104h45.686154c26.466462 0 47.891692-21.110154 47.891693-47.104 0-26.072615-21.425231-47.182769-47.891693-47.182769z m-426.377846-148.086154h-45.686154a47.497846 47.497846 0 0 0-47.812923 47.104c0 25.993846 21.346462 47.104 47.812923 47.104h45.686154c26.387692 0 47.812923-21.110154 47.812923-47.104a47.419077 47.419077 0 0 0-47.812923-47.182769z m426.377846 0h-45.686154a47.497846 47.497846 0 0 0-47.812923 47.104c0 25.993846 21.425231 47.104 47.812923 47.104h45.686154c26.466462 0 47.891692-21.110154 47.891693-47.104 0-26.072615-21.425231-47.182769-47.891693-47.182769z"  horiz-adv-x="1024" />

    
    <glyph glyph-name="caigou" unicode="&#58899;" d="M207.962937 706.766125 207.962937 706.766125c19.73753 19.685341 52.062749 19.685341 71.592548 0L541.066501 445.309344c19.685341-19.739577 19.685341-51.934836 0-71.595618l0 0c-19.581987-19.787672-51.804876-19.787672-71.594595 0L207.962937 635.042593C188.379926 654.781146 188.379926 686.951847 207.962937 706.766125L207.962937 706.766125zM896.550795 448.676022 577.122695 448.676022c16.784268-31.05632 12.224416-70.765717-13.986549-97.02887-31.911804-31.886221-83.769892-31.886221-115.627461 0l-96.978728 97.02887L121.759623 448.676022c-32.016181 0-58.332547-26.290783-58.332547-58.332547l0 0c0-32.0653 26.316366-58.357106 58.332547-58.357106l13.986549 0 134.589324-394.543891 118.736265 0 247.936859 0L755.848239-62.557522l134.588301 394.543891 6.114255 0c32.118512 0 58.3305 26.290783 58.3305 58.357106l0 0C954.881294 422.385239 928.669306 448.676022 896.550795 448.676022L896.550795 448.676022zM275.412119 295.203628l470.799646 0c16.476253 0 29.840632-13.468756 29.840632-29.941939l0 0c0-16.476253-13.365402-29.943986-29.840632-29.943986L275.412119 235.317703c-16.473183 0-29.941939 13.467733-29.941939 29.943986l0 0C245.469156 281.734872 258.938935 295.203628 275.412119 295.203628L275.412119 295.203628zM341.204567 57.731098l342.222245 0c16.368806 0 29.838585-13.57211 29.838585-30.045293l0 0c0-16.474206-13.469779-29.942963-29.838585-29.942963L341.204567-2.257158c-16.423041 0-29.943986 13.468756-29.943986 29.942963l0 0C311.260581 44.158988 324.781526 57.731098 341.204567 57.731098L341.204567 57.731098zM308.308343 174.602899l410.964886 0c16.47523 0 29.945009-13.57211 29.945009-30.149671l0 0c0-16.474206-13.469779-29.839609-29.945009-29.839609L308.308343 114.61362c-16.47523 0-29.788443 13.366426-29.788443 29.839609l0 0C278.5199 161.030789 291.833113 174.602899 308.308343 174.602899zM544.692075 833.740004 544.692075 662.94099 459.319685 662.94099 630.067534 492.167558 800.918737 662.94099 715.544301 662.94099 715.544301 833.740004 544.692075 833.740004Z"  horiz-adv-x="1024" />

    
    <glyph glyph-name="guojijipiaochanpin" unicode="&#59033;" d="M57.450968 47.780469M975.151967 47.780469M108.831172-55.23065M910.685723-55.23065M152.006508 66.263425M65.305867 664.156678c0 61.609173 49.941436 111.550609 111.550609 111.550609l185.916317 0c61.609173 0 111.550609-49.941436 111.550609-111.550609l0-241.677295L176.856475 422.479383c-61.609173 0-111.550609 49.939389-111.550609 111.550609L65.305867 664.156678zM548.687062 664.156678c0 61.609173 49.940412 111.550609 111.551632 111.550609l185.91734 0c61.606103 0 111.548562-49.941436 111.548562-111.550609l0-130.127709c0-61.61122-49.942459-111.550609-111.548562-111.550609L548.687062 422.47836 548.687062 664.156678zM65.305867 236.532367c0 61.61122 49.941436 111.547539 111.550609 111.547539l297.466925 0 0-241.702877c0-61.610196-49.941436-111.548562-111.550609-111.548562L176.856475-5.171534c-61.609173 0-111.550609 49.938366-111.550609 111.548562L65.305867 236.532367zM573.928956 34.42223M785.382902 228.311125l0 41.231053c0 14.288424-2.857071 31.022551-8.579399 51.033303-5.715165 19.996426-13.063527 30.206976-22.445198 30.206976-8.977465 0-16.47216-9.755178-22.049179-29.798676-5.440919-19.555381-8.163937-36.744879-8.163937-51.441603l0-41.231053-142.867872-81.219813 0-20.837584L724.146213 147.091312l0-82.06711-40.823777-41.21775c0-10.220782 10.209526-20.009729 20.405749-20.009729l102.06456 0c10.202363 0 20.410865 9.787924 20.410865 20.009729l-40.822754 41.21775 0 81.239256 142.867872-20.009729 0 20.009729L785.382902 228.311125zM935.19186 34.42223"  horiz-adv-x="1024" />

    
    <glyph glyph-name="renyuanleixing" unicode="&#58924;" d="M222.141626 579.189209c60.203322 0 107.23417 64.90321 114.395904 157.717997 4.124391 53.681029-5.786936 96.523542-28.614962 123.635819C288.099913 884.074435 259.261146 896 222.141626 896S156.151368 884.074435 136.488572 860.543025c-22.987886-27.144249-32.867241-69.826901-28.74285-123.635819 7.129761-92.814787 54.192581-157.717997 114.395904-157.717997zM321.734482 554.954415a30.437367 30.437367 0 0 1-13.396278 3.00537 32.291745 32.291745 0 0 1-16.209816-4.124391c-0.351692-0.255776-40.636443-24.234795-69.95479-24.234795-29.350318 0-69.603097 23.979018-69.986761 24.234795a34.11415 34.11415 0 0 1-29.606095 1.119021C109.983764 548.815786 0 492.513051 0 447.624329h444.25128c0 44.888722-109.983764 101.191457-122.516798 107.330086zM1024.031972 496.637442c0-22.444361-16.817285-40.508555-37.151492-40.508555H666.009242c-20.589984 0-37.247409 18.064194-37.247409 40.508555V846.827026c0 22.316473 16.657425 40.540527 37.247409 40.540527h320.871238c20.334208 0 37.151492-18.224054 37.151492-40.540527v-350.189584zM1024.031972-87.395529c0-22.444361-16.817285-40.636443-37.151492-40.636443H666.009242c-20.589984 0-37.247409 18.192082-37.247409 40.636443V262.794055c0 22.316473 16.657425 40.508555 37.247409 40.508555h320.871238c20.334208 0 37.151492-18.16011 37.151492-40.508555v-350.189584zM453.171475-87.395529c0-22.444361-16.689397-40.636443-37.11952-40.636443H95.212689c-20.589984 0-37.11952 18.192082-37.119521 40.636443V262.794055c0 22.316473 16.561509 40.508555 37.119521 40.508555h320.839266c20.430124 0 37.11952-18.16011 37.11952-40.508555v-350.189584z"  horiz-adv-x="1025" />

    
    <glyph glyph-name="meiyuan" unicode="&#60186;" d="M554.666667 85.333333v-42.666666h-85.333334v42.666666c-93.866667 0-170.666667 76.8-170.666666 170.666667h85.333333c0-46.933333 38.4-85.333333 85.333333-85.333333v170.666666c-93.866667 0-170.666667 76.8-170.666666 170.666667s76.8 170.666667 170.666666 170.666667V725.333333h85.333334v-42.666666c93.866667 0 170.666667-76.8 170.666666-170.666667h-85.333333c0 46.933333-38.4 85.333333-85.333333 85.333333v-170.666666h17.066666c29.866667 0 68.266667-17.066667 98.133334-42.666667 34.133333-29.866667 59.733333-76.8 59.733333-128-4.266667-93.866667-81.066667-170.666667-174.933333-170.666667z m0 85.333334c46.933333 0 85.333333 38.4 85.333333 85.333333s-38.4 85.333333-85.333333 85.333333v-170.666666zM469.333333 597.333333c-46.933333 0-85.333333-38.4-85.333333-85.333333s38.4-85.333333 85.333333-85.333333V597.333333z"  horiz-adv-x="1024" />

    
    <glyph glyph-name="haiwaizhuanxiang" unicode="&#58881;" d="M599.4 712.6l4.8-27.1c1.4-8.2-4-16-12.2-17.4-8.2-1.4-16 4-17.4 12.2l-6.9 39.1c-10.2 1.7-20.6 2.9-31.1 3.7l13.7-77.4c1.4-8.2-4-16-12.2-17.4-8.2-1.4-16 4-17.4 12.2L506 723.9c-10.1-0.2-20.2-0.8-30.1-1.8l20.5-116.4c1.4-8.2-4-16-12.2-17.4-8.2-1.4-16 4-17.4 12.2l-20.7 117.1C289.9 686.9 172 549.2 172 384c0-187.8 152.2-340 340-340s340 152.2 340 340c0 157.6-107.2 290.1-252.6 328.6zM788.8 320c-7.8 0-4-26.3-12.3-30.3s-24.4 14.7-31.3 14.7-28.3 6.9-36.8-14.7C695 256 605 244.3 614.3 207c9.3-37.3-21.3-49.3 13.3-70.7 34.7-21.3 42.4 1.3 65.2 14.7 21 12.3 10.6 11.2 34.8 10.4-27.7-26.9-59.6-48.1-95.1-63-38-16.2-78.6-24.4-120.5-24.4s-82.5 8.2-120.7 24.3c-36.9 15.6-70.1 38-98.5 66.4-16.4 16.4-30.8 34.4-43 53.8 26.8 77.5 1.4 92.7-1.9 151.8-3.4 59.5 57.5 81.1 59.4 127.3s28.8 78.9 35.3 14.5 11.6-39.3 15.8-88.3 35.8-38.1 39.5-23c3.7 15.1-24.5 60.8 8.8 91.1 33.4 30.3 59.1-47.1 66.9-68.1 7.7-21 20.3-87.2 68.7-70.1 48.3 17-14.1 70.3-11.9 94s67.7-7.9 98.8 53.3-19.7 56.2-10.4 74.9c9.2 18.7 60.6 15.6 61.9 54.1 0.2 5.5-0.1 10.3-0.6 14.5 18.4-11.9 35.5-25.7 51.2-41.4 28.5-28.5 50.8-61.6 66.4-98.5C813.8 466.5 822 425.9 822 384c0-29.5-4.1-58.3-12.1-86.2-6.2 15.5-14.4 22.2-21.1 22.2zM677.5 304.8c0.5 7-56-19.5-101.1-8.3-45.1 11.2-66.8 74.6-96.3 62.5-29.4-12.1-29.2-42.9-16.9-50 80-46.1 127.9-50.1 178.4-39.1s35.4 27.9 35.9 34.9z"  horiz-adv-x="1024" />

    
    <glyph glyph-name="icon_haiwaizhiye" unicode="&#58907;" d="M770.432 409.728c40.064 37.504 75.136 75.52 96.64 109.952 58.24 93.696 48.256 183.424 48.256 183.424-48.512 56.064-210.304 26.24-255.488-8.192-38.4-29.312-79.488-83.84-120.96-148.096-125.824-28.032-308.352-68.48-331.264-73.216-35.2-7.296-79.744-55.936-79.744-85.76l314.24-2.816C404.736 320 368.64 256.51199999999994 335.744 206.84799999999996c-12.928-19.584-32.768-48.128-49.536-69.504-6.656 7.04-14.976 15.744-25.216 26.368-39.168 40.448-84.096 2.048-84.096 2.048l21.632-42.368c-3.584 0.64-7.296 1.28-11.264 1.792-39.808 6.016-59.392-33.792-59.392-33.792l124.416-88.448c9.984 10.496 233.088 175.616 284.032 216.064 24.96 19.968 67.968 51.84 115.456 89.6L871.296 64c22.4 19.712 33.92 80.384 19.456 107.904-8.704 16.512-71.296 140.672-120.32 237.824z m-22.144 292.48c7.296 2.56 14.592 4.224 21.76 5.248-34.688-25.088-100.48-112.64-112.384-128.768l-12.928 10.24s71.04 101.632 103.552 113.28z"  horiz-adv-x="1024" />

    
    <glyph glyph-name="jiandu" unicode="&#59169;" d="M511.3-61.9c-8.8 0-17.6 2.6-25.2 7.8L327.2 55.1c-129.7 89.2-209.5 230.4-219 387.5L97.6 620.1c-0.1 0.9-0.1 1.8-0.1 2.7 0 56.6 38.1 106.5 92.7 121.5l288.4 78.9c21.4 5.8 44.1 5.9 65.5 0l288.4-78.9c54.6-14.9 92.7-64.9 92.7-121.5 0-0.9 0-1.8-0.1-2.7l-10.7-177.5c-2.8-47.4-12.3-94.1-28.2-138.9-8.2-23.1-33.6-35.3-56.8-27.1-23.1 8.2-35.3 33.6-27.1 56.8 13.1 36.9 20.9 75.5 23.3 114.6l10.6 175.9c-0.5 16.2-11.5 30.3-27.2 34.6l-288.4 78.9c-6.1 1.7-12.5 1.7-18.6 0l-288.4-78.8c-15.7-4.3-26.8-18.4-27.2-34.6L197 448c7.8-129.5 73.6-246 180.6-319.5l133.7-91.9 112.8 77.6c20.2 13.9 47.9 8.8 61.8-11.5 13.9-20.2 8.8-47.9-11.5-61.8l-138-94.9c-7.5-5.3-16.3-7.9-25.1-7.9zM539 172.2c-125.4 0-227.5 102.1-227.5 227.5s102 227.6 227.5 227.6 227.5-102.1 227.5-227.5S664.4 172.2 539 172.2z m0 366.1c-76.4 0-138.6-62.2-138.6-138.6 0-76.4 62.2-138.6 138.6-138.6 76.4 0 138.6 62.2 138.6 138.6-0.1 76.5-62.2 138.6-138.6 138.6zM782.1 117.7c-11 0-22 4.1-30.6 12.2L639.7 236.1c-17.8 16.9-18.5 45.1-1.6 62.9 17 17.8 45.1 18.5 62.9 1.6l111.8-106.2c17.8-16.9 18.5-45.1 1.6-62.9-8.8-9.1-20.5-13.8-32.3-13.8z"  horiz-adv-x="1024" />

    
    <glyph glyph-name="kehu" unicode="&#58901;" d="M849.1 261.3c-136.6 87.1-176.9 113.3-236.7 121.3 4-15.8 6.3-32.8 6.3-50.5 0-67.1-31.6-124-75.2-143.3v89.3h-57.8v-92.3c-47.6 15.7-82.9 75.3-82.9 146.3 0 17.2 2.1 33.7 5.9 49.1-56.5-9.7-103.8-38.6-244.1-124.8-46.8-31.1-74.2-184.5-74.2-225.1 0-106.5 188.2-77.1 420.3-77.1S931-75.2 931 31.3c0.1 42.8-30.4 198-81.9 230zM512.7 291.6l32.7 59.7-32.7 32.8-32.8-32.8zM510.7 626.5m-200.2 0a200.2 200.2 0 1 1 400.4 0 200.2 200.2 0 1 1-400.4 0Z"  horiz-adv-x="1024" />

    
    <glyph glyph-name="gongchengxiangmu" unicode="&#58953;" d="M559.149511-66.787556a53.361778 53.361778 0 0 0-53.339022 53.339023V255.567644a53.361778 53.361778 0 0 0 53.339022 53.339023h459.298133a53.361778 53.361778 0 0 0 53.339023-53.339023v-269.016177a53.361778 53.361778 0 0 0-53.339023-53.316267H559.149511z m26.032356 74.251378h407.028622v227.419022H585.181867v-227.419022zM751.798044 587.730489H826.026667v-279.460978h-74.228623zM92.797156-122.015289A92.7744 92.7744 0 0 0 0.227556-29.468444v52.269511a92.7744 92.7744 0 0 0 92.615111 92.592355h20.6848V591.143822l-51.427556 0.432356c-9.807644 0-19.205689 3.845689-26.441955 11.081955a37.091556 37.091556 0 0 0-10.899912 26.464711c0.227556 20.252444 16.861867 36.909511 37.341867 36.909512l50.972445-0.432356V813.442844A82.375111 82.375111 0 0 0 195.447467 895.772444h87.4496c5.12 0 10.467556-0.637156 15.997155-1.706666 3.868444 0 7.896178-0.227556 12.379022-1.934222l750.091378-235.52a37.228089 37.228089 0 0 0 25.8048-41.392356 37.523911 37.523911 0 0 0-36.681955-31.561956l-154.464711 1.069512-78.939023 0.841955-451.401955 3.640889v-473.816178h15.132444a92.7744 92.7744 0 0 0 92.615111-92.592355v-52.269511a92.7744 92.7744 0 0 0-92.615111-92.592356H92.797156z m0 162.975289a18.113422 18.113422 0 0 1-18.136178-18.136178v-52.269511c0-10.012444 8.123733-18.136178 18.136178-18.136178h287.994311c10.0352 0 18.136178 8.123733 18.136177 18.136178v52.269511a18.113422 18.113422 0 0 1-18.136177 18.136178H92.797156z m95.140977 74.660978h103.264711v474.453333l-103.264711 0.637156v-475.090489zM365.681778 663.893333l422.183822-3.185777 0.841956 3.822933-423.025778 132.892444V663.893333zM195.834311 821.339022a8.009956 8.009956 0 0 1-7.896178-7.896178v-148.047644l103.264711-0.864711V813.442844a8.009956 8.009956 0 0 1-7.896177 7.896178H195.834311z"  horiz-adv-x="1092" />

    
    <glyph glyph-name="bank-card--fill" unicode="&#59007;" d="M938.666667 426.666667v-384a42.666667 42.666667 0 0 0-42.666667-42.666667H128a42.666667 42.666667 0 0 0-42.666667 42.666667v384h853.333334z m0 170.666666H85.333333V725.333333a42.666667 42.666667 0 0 0 42.666667 42.666667h768a42.666667 42.666667 0 0 0 42.666667-42.666667v-128z"  horiz-adv-x="1024" />

    
    <glyph glyph-name="huaxuehuagong" unicode="&#58902;" d="M79.202346-127.174194c-11.411144 1.651613-29.503812 6.381232-31.455718 8.258065-0.45044 0.375367-1.35132 0.67566-2.102053 0.67566-0.67566 0-3.002933 0.975953-5.104986 2.252199-2.102053 1.201173-4.053959 2.252199-4.429325 2.2522-1.201173 0-11.636364 7.657478-15.615249 11.486217-3.753666 3.528446-10.735484 11.861584-10.735484 12.837536 0 0.150147-0.975953 1.951906-2.2522 3.978886-1.201173 1.951906-3.303226 6.831672-4.654545 10.735484l-2.477419 7.131965v33.782991l2.852785 9.759531c1.651613 5.330205 3.603519 11.260997 4.429326 13.13783 4.053959 9.083871 9.834604 20.495015 13.513196 26.350733 4.804692 7.882698 10.360117 16.666276 11.861584 18.993548 0.600587 0.975953 2.402346 3.828739 3.903812 6.381232 1.57654 2.552493 3.153079 5.029912 3.603519 5.555425 1.051026 1.276246 6.756598 10.285044 6.756599 10.66041s4.204106 6.831672 7.582404 11.786511c0.825806 1.1261 1.426393 2.252199 1.426393 2.477419s1.276246 2.402346 2.92786 4.729619c2.702639 3.978886 4.279179 6.531378 8.558357 13.438123 0.975953 1.57654 2.927859 4.729619 4.429326 6.981818 1.426393 2.252199 3.603519 5.705572 4.804692 7.657478 1.201173 2.026979 2.402346 3.603519 2.777713 3.603519 0.300293 0 0.525513 0.45044 0.525513 0.975953s0.975953 2.327273 2.252199 3.978886c1.201173 1.57654 2.252199 3.153079 2.2522 3.453372 0 0.525513 7.582405 12.537243 12.086803 19.218769 1.201173 1.726686 2.177126 3.378299 2.177126 3.528445 0 0.22522 2.026979 3.453372 4.504399 7.282112 2.477419 3.753666 4.504399 6.981818 4.504399 7.207038 0 0.150147 1.201173 2.026979 2.627566 3.978886 1.426393 2.026979 2.627566 3.903812 2.627566 4.129032s1.951906 3.378299 4.279179 6.906745c2.402346 3.603519 4.804692 7.432258 5.480352 8.558358 2.702639 4.804692 5.630499 9.384164 7.282111 11.33607 0.975953 1.201173 1.726686 2.477419 1.726686 2.777713 0 0.375367 0.975953 2.177126 2.177126 3.903812 5.255132 7.807625 12.086804 18.468035 12.086804 18.768328s5.180059 8.408211 7.507331 11.861584c0.45044 0.600587 1.201173 1.876833 1.726686 2.702639 2.026979 3.603519 6.531378 10.88563 7.282112 11.78651 1.201173 1.35132 6.756598 10.285044 6.756598 10.735484 0 0.22522 0.975953 1.80176 2.177126 3.528446s3.453372 5.180059 4.954839 7.657478c1.57654 2.477419 3.828739 5.930792 4.954839 7.657478 1.201173 1.726686 2.177126 3.303226 2.177126 3.603519s0.975953 1.876833 2.177126 3.603519c1.1261 1.726686 3.378299 5.180059 4.954839 7.657478 1.501466 2.477419 3.678592 5.855718 4.804692 7.507332s2.477419 3.903812 3.002932 5.029912c0.600587 1.1261 1.57654 2.702639 2.2522 3.453372s1.726686 2.252199 2.327272 3.303226c1.876833 3.303226 9.609384 15.615249 13.513197 21.621114 2.026979 3.078006 3.978886 6.156012 4.279179 6.756598 0.45044 1.1261 8.107918 13.062757 12.312023 19.368915 1.201173 1.726686 2.177126 3.453372 2.177126 3.753666s0.525513 1.276246 1.1261 2.02698c1.951906 2.552493 7.882698 11.861584 7.882698 12.387096 0 0.300293 1.201173 2.102053 2.627566 3.978886s2.627566 3.753666 2.627566 4.204106c0 0.375367 0.750733 1.651613 1.726686 2.852786 0.975953 1.1261 2.627566 3.603519 3.753666 5.480351 3.002933 4.954839 3.453372 5.705572 8.408211 13.513197 4.879765 7.657478 5.029912 7.882698 9.008798 14.489149 1.501466 2.477419 3.153079 4.954839 3.753665 5.555426s1.1261 1.426393 1.1261 1.801759 1.201173 2.327273 2.627566 4.354252c1.426393 1.951906 2.627566 3.828739 2.627566 4.129033 0 0.45044 3.753666 6.306158 7.582405 11.861583 0.825806 1.1261 1.426393 2.252199 1.426393 2.47742 0 0.300293 0.975953 1.876833 2.177126 3.603519s3.453372 5.180059 4.954838 7.657478c1.57654 2.477419 3.828739 5.930792 4.954839 7.657478 1.201173 1.726686 2.177126 3.303226 2.177126 3.603519s0.975953 1.876833 2.177126 3.603519 3.453372 5.180059 4.954839 7.657478c3.378299 5.330205 7.131965 11.185924 9.083871 14.188856 0.750733 1.201173 1.726686 2.702639 2.177126 3.378299 2.327273 3.903812 6.156012 9.909677 8.032845 12.612317 1.1261 1.726686 2.102053 3.303226 2.102052 3.603519 0 0.22522 0.600587 1.35132 1.426393 2.477419 3.528446 5.180059 7.582405 11.411144 7.582405 11.786511 0 0.22522 1.726686 3.002933 3.828739 6.231085 2.177126 3.153079 4.879765 7.432258 6.005865 9.384164l2.177126 3.603519V810.266276l-26.500879 0.300293-26.575954 0.22522-7.207038 3.528446c-19.143695 9.534311-28.227566 29.128446-23.12258 49.923753 1.951906 7.957771 5.330205 13.81349 11.56129 19.894428 3.753666 3.678592 6.981818 6.005865 11.636364 8.258065l6.381231 3.228152h363.504986l5.855718-2.627566c4.504399-2.026979 7.207038-3.903812 11.336071-7.882697 6.756598-6.681525 7.507331-7.582405 10.285044-13.738417 2.552493-5.480352 4.429326-13.062757 4.429325-17.867449 0-11.636364-6.681525-25.975367-15.540176-33.032258-1.951906-1.651613-3.753666-3.153079-3.978886-3.378299-1.051026-1.276246-11.185924-5.405279-14.939589-6.005865-2.327273-0.375367-14.564223-0.67566-27.251613-0.67566h-23.122581v-224.619355l5.104986 5.255132c10.88563 10.960704 24.323754 17.867449 39.939003 20.344868 3.228152 0.525513 41.065103 0.825806 111.934311 0.825807 114.712023 0 109.832258 0.150147 117.189442-3.678592 12.537243-6.381232 18.317889-22.071554 13.438124-36.335484-2.327273-6.606452-9.158944-13.81349-15.61525-16.441056l-4.354252-1.726686-107.730205-0.375367c-121.243402-0.45044-111.483871 0.075073-114.63695-6.156012-0.90088-1.80176-2.026979-6.156012-2.47742-9.75953-0.67566-5.029912-1.426393-7.357185-3.153079-10.059824-2.477419-3.978886-2.552493-3.528446 2.02698-11.185924 0.975953-1.651613 2.552493-4.354252 3.453372-6.005865s2.552493-4.354252 3.678592-6.005865 2.852786-4.504399 3.828739-6.231085c2.702639-4.879765 3.903812-6.981818 6.156012-10.435191 1.1261-1.80176 2.026979-3.378299 2.02698-3.603519 0-0.300293 0.975953-1.951906 2.252199-3.753666 1.201173-1.80176 2.252199-3.528446 2.252199-3.753665 0-0.300293 1.201173-2.252199 2.627566-4.429326s2.627566-4.204106 2.627566-4.429326 1.051026-1.951906 2.2522-3.753665c1.201173-1.876833 2.252199-3.603519 2.252199-3.903813 0-0.22522 1.051026-1.951906 2.2522-3.753665s2.252199-3.528446 2.252199-3.753666c0-0.300293 1.201173-2.252199 2.627566-4.429325s2.627566-4.204106 2.627566-4.429326 0.975953-1.951906 2.252199-3.753666c1.201173-1.876833 2.252199-3.603519 2.2522-3.903812 0-0.22522 0.825806-1.57654 1.726686-2.852786 0.975953-1.35132 2.552493-3.903812 3.453373-5.705572s2.102053-3.753666 2.702639-4.354252 1.1261-1.501466 1.1261-1.951906c0-0.525513 0.750733-1.876833 1.726686-3.002933l1.726686-2.177126 104.652199 1.57654c57.581232 0.90088 143.390029 2.102053 190.686217 2.702639s89.412317 1.35132 93.616423 1.57654l7.582404 0.45044 0.300294 33.107331 0.300293 33.182405 2.402346 6.981818c1.276246 3.828739 3.002933 8.182991 3.828739 9.759531 3.528446 7.056891 4.204106 8.182991 6.381232 11.035777 3.603519 4.804692 8.032845 9.534311 12.312023 13.13783 7.432258 6.381232 8.783578 11.636364 4.729619 18.092668-3.903812 6.156012-1.57654 5.930792-66.514956 5.930792-54.578299 0-56.680352 0.075073-61.184751 1.501466-7.507331 2.402346-12.68739 6.906745-16.741349 14.639297-2.252199 4.279179-2.402346 4.954839-2.402346 12.762463 0 7.882698 0.075073 8.483284 2.477419 13.13783 3.153079 6.080938 8.107918 10.810557 14.414077 13.81349l4.879765 2.327272h125.372434l7.357185-2.102052c23.948387-6.831672 40.614663-22.221701 49.248094-45.494429l2.627566-7.207038 0.075073-15.765396v-15.765396l-2.702639-7.582404c-1.501466-4.129032-3.603519-8.933724-4.729619-10.660411-1.051026-1.726686-1.951906-3.378299-1.951906-3.603519 0-1.80176-13.36305-16.591202-16.365983-18.242815-0.750733-0.375367-2.402346-2.177126-3.603519-3.903812l-2.177126-3.15308-0.375366-256.825806-0.375367-256.825806-1.651613-5.630499c-0.975953-3.078006-2.327273-7.807625-3.078006-10.510264-1.35132-4.429326-4.279179-11.711437-6.306158-15.390029-0.45044-0.750733-1.57654-2.777713-2.402346-4.504399-2.477419-4.579472-8.858651-13.888563-9.534311-13.888563-0.300293 0-0.750733-0.600587-0.975953-1.35132-0.375367-1.1261-7.432258-8.558358-13.58827-14.339003-2.177126-2.026979-10.285044-7.957771-12.46217-9.083871-0.975953-0.525513-1.951906-1.201173-2.177126-1.501466-1.426393-1.951906-22.071554-10.88563-27.702053-12.01173-1.876833-0.375367-6.681525-1.501466-10.585337-2.402346l-7.131965-1.726686-493.607038-0.075074c-271.465103-0.075073-495.634018 0.150147-498.111437 0.525513z m933.536657 59.157772c0 0.45044-0.300293 0.975953-0.750733 1.201173-0.375367 0.22522-1.951906 2.552493-3.378299 5.104985-1.501466 2.552493-4.053959 6.681525-5.705572 9.158944-1.57654 2.477419-3.453372 5.555425-4.053959 6.906745-0.600587 1.276246-1.426393 2.552493-1.80176 2.777713-0.375367 0.300293-2.026979 2.702639-3.603519 5.405278-1.57654 2.777713-3.378299 5.780645-3.978885 6.681525-0.600587 0.975953-2.177126 3.528446-3.528446 5.705572-1.276246 2.252199-4.204106 6.831672-6.381232 10.209971s-4.954839 7.882698-6.231085 9.984751c-1.201173 2.102053-4.504399 7.357185-7.282111 11.711437-2.852786 4.279179-5.104985 8.032845-5.104986 8.333137 0 0.22522-0.750733 1.501466-1.726686 2.777713s-3.303226 5.029912-5.255132 8.333138c-2.026979 3.303226-5.405279 8.858651-7.657478 12.387097s-4.053959 6.681525-4.129032 6.981818c0 0.300293-0.600587 1.276246-1.35132 2.102053-0.825806 0.750733-1.876833 2.402346-2.402346 3.528445-0.600587 1.1261-1.726686 3.002933-2.627566 4.279179-0.90088 1.201173-2.552493 3.903812-3.753665 6.005865-1.1261 2.026979-2.327273 3.903812-2.627566 4.129033s-0.975953 1.276246-1.57654 2.327272c-0.600587 1.1261-2.552493 4.429326-4.429325 7.432258s-3.903812 6.306158-4.579473 7.432258c-0.67566 1.051026-2.627566 4.129032-4.279178 6.831672-1.726686 2.702639-4.204106 6.681525-5.555426 8.933724-3.753666 6.080938-5.180059 8.408211-8.708504 14.03871-1.726686 2.852786-4.954839 8.032845-7.131965 11.56129s-4.654545 7.507331-5.555425 8.783578c-0.975953 1.276246-1.726686 2.552493-1.726686 2.777713s-2.177126 3.828739-4.879766 7.957771-4.879765 7.807625-4.879765 8.107918-1.051026 1.876833-2.2522 3.453372c-1.276246 1.651613-2.252199 3.303226-2.252199 3.603519 0 0.375367-0.90088 1.876833-1.951906 3.303226-1.1261 1.426393-2.552493 3.603519-3.228153 4.804692s-2.627566 4.429326-4.429325 7.282112c-1.726686 2.777713-3.603519 5.780645-4.129032 6.606451-0.45044 0.825806-1.80176 2.927859-2.92786 4.654546-1.201173 1.726686-2.102053 3.378299-2.102052 3.603519 0 0.300293-0.975953 1.876833-2.102053 3.603519-1.951906 2.852786-5.855718 8.933724-8.258065 12.91261-0.45044 0.825806-2.327273 3.828739-4.053959 6.681525-1.80176 2.777713-3.528446 5.705572-3.978885 6.381231-2.177126 3.678592-6.080938 9.834604-7.957772 12.612317-1.201173 1.726686-2.177126 3.303226-2.177126 3.603519 0 0.22522-0.90088 1.876833-2.026979 3.603519-1.201173 1.726686-2.552493 3.828739-3.002933 4.654546-0.525513 0.825806-2.327273 3.678592-3.978885 6.381231s-4.804692 7.732551-6.981818 11.260997-4.654545 7.507331-5.555426 8.783578c-0.975953 1.276246-1.726686 2.552493-1.726686 2.777713s-2.177126 3.828739-4.879765 7.957771-4.879765 7.807625-4.879766 8.107918-1.051026 1.876833-2.252199 3.453372c-1.276246 1.651613-2.252199 3.453372-2.2522 3.978886s-0.300293 0.975953-0.600586 0.975953c-0.375367 0-1.051026 0.750733-1.57654 1.651613-1.276246 2.552493-9.384164 15.765396-12.086803 19.744281-0.600587 0.90088-2.402346 3.828739-3.978886 6.456305s-4.504399 7.432258-6.531378 10.660411c-2.102053 3.228152-3.753666 6.156012-3.753666 6.531378 0 0.300293-0.525513 0.975953-1.126099 1.501467-0.600587 0.45044-2.327273 3.078006-3.903813 5.780645s-3.378299 5.705572-3.978885 6.606451c-0.600587 0.975953-2.252199 3.678592-3.678593 6.080939-1.426393 2.477419-3.303226 5.405279-4.129032 6.681525-0.90088 1.201173-2.026979 2.927859-2.477419 3.753665-2.252199 3.678592-5.780645 9.384164-8.858651 14.26393-1.876833 2.852786-3.753666 6.080938-4.279179 7.131965s-1.1261 2.026979-1.35132 2.252199c-0.300293 0.22522-1.726686 2.477419-3.303226 5.104986-3.228152 5.330205-3.153079 5.330205-11.486217 1.501466-2.552493-1.1261-5.180059-2.102053-5.780645-2.102053-1.1261 0 1.276246-4.579472 5.405279-10.285044 0.90088-1.276246 1.651613-2.552493 1.651613-2.777713s1.1261-2.102053 2.477419-4.053959c2.702639-4.053959 3.002933-4.504399 7.432258-11.711436 5.104985-8.182991 5.480352-8.783578 8.708504-13.963637 1.726686-2.702639 4.879765-7.732551 7.056892-11.260997 2.102053-3.528446 4.654545-7.432258 5.630498-8.708504s1.726686-2.552493 1.726687-2.777713c0-0.45044 6.231085-10.435191 14.789442-23.57302 2.177126-3.453372 3.978886-6.381232 3.978886-6.681525 0-0.22522 0.975953-1.80176 2.102053-3.528446 1.951906-2.927859 6.156012-9.459238 8.182991-12.91261 3.078006-5.029912 6.606452-10.585337 6.981818-10.885631 0.22522-0.22522 1.426393-2.026979 2.627566-4.053959 1.276246-2.102053 2.927859-4.804692 3.753666-6.156011 3.002933-4.654545 8.708504-14.03871 13.438123-21.846335 1.276246-1.951906 3.002933-4.579472 3.978886-5.705571 0.975953-1.201173 1.726686-2.477419 1.726686-2.777713 0-0.67566 1.201173-2.552493 6.906745-11.035777 1.1261-1.726686 2.102053-3.303226 2.102053-3.603519s1.201173-2.252199 2.627566-4.204106c1.426393-2.026979 2.627566-3.978886 2.627566-4.354252s0.45044-1.201173 1.051026-1.726686c0.525513-0.600587 1.951906-2.702639 3.153079-4.729619 2.852786-4.879765 7.357185-12.01173 11.411144-18.092669 1.726686-2.702639 3.153079-5.029912 3.153079-5.255132s0.90088-1.80176 2.102053-3.528445c2.927859-4.579472 3.753666-5.855718 5.255132-8.258065 0.67566-1.201173 3.528446-5.630499 6.381231-9.984751 2.777713-4.279179 5.029912-8.107918 5.029912-8.408211s1.051026-1.876833 2.2522-3.453372c1.276246-1.651613 2.252199-3.303226 2.252199-3.678592s1.051026-1.951906 2.2522-3.528446c1.276246-1.57654 2.252199-3.228152 2.252199-3.603519 0-0.45044 0.750733-1.726686 1.726686-2.92786 0.975953-1.1261 2.702639-3.828739 3.903813-5.855718 1.1261-2.102053 2.327273-3.903812 2.627566-4.129032s0.975953-1.276246 1.576539-2.327273c1.276246-2.477419 6.456305-10.735484 10.435191-16.816422 1.651613-2.477419 3.303226-5.330205 3.753665-6.381232s1.426393-2.552493 2.177127-3.378299 2.252199-3.002933 3.303225-4.879765c4.354252-7.207038 8.258065-13.513196 11.185924-17.792376 1.1261-1.726686 2.102053-3.303226 2.102053-3.528446 0-0.300293 3.228152-5.630499 6.756598-10.960703 0.375367-0.600587 2.327273-3.678592 4.204106-6.756599 1.951906-3.078006 4.504399-7.056891 5.630498-8.783577 1.201173-1.726686 2.177126-3.378299 2.177126-3.753666 0-0.300293 1.051026-1.951906 2.2522-3.528446 1.276246-1.651613 2.252199-3.228152 2.252199-3.528446s1.80176-3.153079 3.978886-6.381231c2.177126-3.303226 4.954839-7.582405 6.156012-9.609384 1.276246-2.102053 2.927859-4.804692 3.753665-6.156012 3.903812-6.156012 8.333138-13.36305 9.384164-15.164809 0.600587-1.1261 1.276246-2.177126 1.501467-2.402347 0.975953-0.975953 3.753666-5.255132 3.753665-5.780645 0-0.300293 1.051026-1.951906 2.2522-3.528445 1.276246-1.651613 2.252199-3.303226 2.252199-3.60352 0-0.375367 0.90088-1.876833 1.951906-3.303225 1.1261-1.426393 2.552493-3.603519 3.228153-4.804692 1.1261-2.026979 6.681525-11.035777 9.083871-14.71437 1.951906-2.927859 7.732551-12.23695 11.711437-18.768328 5.630499-9.158944 4.579472-8.558358 13.513196-8.558358 4.354252 0 7.807625 0.300293 7.807625 0.67566z m-453.292669 164.71085c5.780645 3.303226 9.309091 7.507331 11.636364 13.81349 2.252199 6.156012 2.177126 9.459238-0.150147 15.765396-4.053959 10.735484-13.13783 16.591202-24.4739 15.840469-6.080938-0.45044-10.585337-2.552493-14.939589-6.831672-9.384164-9.309091-9.684457-24.173607-0.67566-33.632844 5.405279-5.630499 11.711437-8.333138 18.843402-7.957771 3.978886 0.22522 5.855718 0.825806 9.75953 3.002932z m-58.106745 62.76129c3.903812 0.750733 10.209971 4.954839 13.212904 8.858652 8.258065 10.360117 5.555425 27.551906-5.330206 34.533724-6.080938 3.828739-6.906745 4.129032-13.663343 4.129032-7.657478 0-10.88563-1.276246-16.591202-6.606452-7.056891-6.606452-9.909677-16.365982-6.981818-23.948387 2.327273-5.930792 5.104985-9.834604 9.609384-13.13783 5.555425-4.053959 11.936657-5.330205 19.744281-3.828739z m607.117889 51.124927c9.234018 2.402346 15.390029 7.207038 15.390029 12.086804 0 5.855718-9.534311 11.636364-21.395894 12.837536-3.753666 0.375367-31.380645 0.600587-61.935484 0.45044l-55.178886-0.22522-5.630498-2.552492c-6.681525-3.078006-8.783578-4.804692-10.285044-8.258065-0.975953-2.252199-0.975953-2.852786 0.150147-5.255132 1.651613-3.678592 7.056891-7.131965 13.888563-9.008798 5.405279-1.426393 8.032845-1.501466 62.385923-1.501466 54.353079-0.075073 56.980645 0 62.611144 1.426393z m-390.005865 4.354252c0 0.300293-0.375367 0.975953-0.825807 1.426393s-1.201173 1.501466-1.726686 2.327273c-0.45044 0.825806-2.327273 3.903812-4.204105 6.906745-1.876833 2.927859-3.903812 6.306158-4.504399 7.357185-0.600587 1.1261-1.35132 2.177126-1.57654 2.402346-0.45044 0.375367-3.753666 5.630499-7.807624 12.387096-0.825806 1.426393-2.402346 3.903812-3.528446 5.555426-1.201173 1.726686-2.852786 4.354252-3.828739 5.855718-0.975953 1.57654-3.002933 4.729619-4.504399 7.056892-1.501466 2.252199-2.777713 4.504399-2.777713 4.954838s-0.525513 1.201173-1.126099 1.726687c-0.525513 0.45044-2.102053 2.777713-3.453373 5.104985-1.276246 2.327273-2.552493 4.429326-2.852786 4.654545-0.45044 0.375367-4.579472 6.906745-6.981818 11.110851-0.750733 1.35132-1.726686 2.927859-2.102053 3.378299-0.45044 0.525513-2.327273 3.453372-4.279178 6.531378-1.876833 3.078006-4.654545 7.507331-6.080939 9.759531-1.501466 2.252199-3.528446 5.480352-4.504399 7.131965-1.051026 1.651613-2.852786 4.429326-4.053959 6.156012-1.1261 1.726686-2.102053 3.303226-2.102052 3.453372 0 0.22522-1.80176 3.078006-3.903813 6.381232-3.978886 5.930792-6.906745 10.585337-10.20997 16.215835-1.80176 3.002933-8.333138 13.212903-12.161877 18.843402-1.1261 1.651613-2.252199 3.528446-2.47742 4.129032-0.300293 0.600587-1.876833 3.153079-3.528445 5.630499-3.903812 6.005865-9.158944 14.339003-10.435191 16.816422-0.600587 1.051026-1.276246 2.102053-1.57654 2.327273-0.525513 0.300293-4.729619 7.056891-7.282111 11.56129-0.525513 0.825806-1.276246 2.102053-1.726686 2.70264-2.927859 4.204106-8.258065 12.68739-8.258065 13.13783 0 0.300293-1.051026 1.80176-2.252199 3.378299-1.276246 1.57654-2.252199 3.153079-2.2522 3.603519 0 0.375367-0.975953 1.951906-2.252199 3.528445-1.201173 1.57654-2.252199 3.153079-2.252199 3.528446s-1.201173 2.252199-2.627566 4.129032-2.627566 3.678592-2.627566 3.978886c0 0.45044-4.654545 7.882698-7.507332 12.01173-0.45044 0.600587-1.201173 1.876833-1.726686 2.70264-2.026979 3.603519-6.531378 10.88563-7.282111 11.78651-1.201173 1.35132-6.756598 10.285044-6.756599 10.735484 0 0.22522-0.975953 1.80176-2.177126 3.528446s-3.753666 5.705572-5.780645 8.783577c-1.951906 3.078006-5.180059 8.107918-7.207038 11.185924-1.951906 3.078006-3.603519 5.780645-3.603519 6.080938s-0.525513 0.975953-1.1261 1.501467c-0.975953 0.825806-1.1261 18.017595-1.1261 146.468035V810.416422H442.181818v-290.683871l-2.252199-3.378299c-1.201173-1.80176-2.252199-3.453372-2.2522-3.603519s-1.951906-3.303226-4.354252-6.906745c-2.477419-3.603519-4.879765-7.432258-5.405278-8.408211-0.525513-1.051026-1.276246-2.252199-1.651613-2.627566-0.750733-0.975953-6.381232-9.684457-8.032845-12.537243-4.504399-7.582405-6.306158-10.435191-7.207038-11.185924-0.600587-0.525513-1.1261-1.276246-1.1261-1.726686 0-0.750733-2.177126-4.204106-7.657478-12.312024-1.1261-1.726686-2.102053-3.303226-2.102053-3.603519 0-0.22522-0.90088-1.651613-1.951906-3.078006-1.1261-1.426393-2.552493-3.603519-3.228152-4.804692-2.327273-4.204106-6.981818-11.636364-7.582405-12.01173-0.300293-0.22522-0.975953-1.276246-1.576539-2.327273-0.975953-1.876833-6.456305-10.88563-8.933725-14.639296-0.600587-0.90088-2.627566-4.129032-4.504399-7.056891-5.104985-8.182991-8.483284-13.513196-9.75953-15.39003-0.600587-0.90088-2.552493-3.978886-4.354253-6.831671-1.726686-2.852786-4.504399-7.207038-6.156011-9.684458s-3.228152-5.029912-3.528446-5.630498c-0.45044-1.051026-1.651613-2.927859-6.831672-10.735484-1.35132-1.951906-2.402346-3.903812-2.402346-4.279179 0-0.300293-0.750733-1.57654-1.726686-2.777713-1.651613-1.951906-4.579472-6.531378-7.282111-11.33607-0.67566-1.1261-3.153079-5.104985-5.555426-8.783578-8.408211-12.987683-9.459238-14.639296-9.459237-15.239882 0-0.375367-0.600587-1.276246-1.276246-2.102053-1.276246-1.35132-4.654545-6.606452-7.732552-11.936657-1.876833-3.228152-6.456305-10.134897-8.258064-12.537243-0.825806-1.051026-1.501466-2.252199-1.501467-2.552493s-1.1261-2.252199-2.552492-4.354252c-4.879765-7.357185-11.260997-17.341935-12.46217-19.368915-2.477419-4.354252-6.981818-11.486217-7.432258-11.861584-0.22522-0.22522-0.975953-1.276246-1.57654-2.402346-0.600587-1.051026-2.627566-4.429326-4.504399-7.357185-1.876833-3.002933-3.753666-6.005865-4.129032-6.681525-3.753666-5.930792-5.330205-8.408211-7.207038-11.11085-1.201173-1.726686-2.177126-3.303226-2.177126-3.603519 0-0.22522-0.975953-1.876833-2.102053-3.603519-1.201173-1.726686-2.402346-3.603519-2.702639-4.129032-0.45044-0.67566 46.620528-0.90088 234.078592-0.90088 129.051026 0 234.679179 0.300293 234.679179 0.600586z m391.807625 85.958945c7.807625 2.402346 13.58827 7.432258 13.588269 11.936657 0 5.330205-9.083871 11.11085-19.443988 12.537243-9.759531 1.276246-80.478592 1.1261-88.736657-0.22522-19.519062-3.153079-24.624047-15.540176-9.309091-22.521994 0.825806-0.375367 3.903812-1.276246 6.756599-2.02698 4.804692-1.276246 8.783578-1.35132 49.17302-1.126099 38.212317 0.150147 44.443402 0.375367 47.971848 1.426393zM591.577713 217.03695c-15.540176 6.231085-22.296774 19.819355-17.041643 34.308505 2.402346 6.681525 5.705572 10.435191 12.086804 13.813489 4.954839 2.627566 5.780645 2.852786 11.711437 2.852786 5.780645 0 6.906745-0.22522 11.486217-2.552492 11.78651-5.930792 16.891496-19.143695 12.387097-32.356599-1.951906-5.780645-6.231085-10.735484-12.011731-13.888563-3.453372-1.876833-4.954839-2.252199-10.735483-2.402346-3.678592-0.075073-7.282111 0-7.882698 0.22522zM501.940176 291.960117c-8.558358 3.228152-13.738416 14.339003-10.585337 22.747214s9.083871 12.612317 17.642228 12.612317c6.531378-0.075073 11.33607-2.402346 14.789443-7.357185 4.804692-7.056891 5.029912-14.188856 0.750733-20.645161-3.828739-5.555425-7.432258-7.657478-14.113783-8.107918-3.753666-0.22522-6.456305 0-8.483284 0.750733zM497.585924 372.138416c-1.1261 0.525513-3.002933 2.252199-4.279179 3.903813-4.053959 5.104985-3.978886 10.735484 0.075073 16.065689 2.927859 3.828739 6.080938 4.954839 11.861584 4.429325 5.255132-0.45044 7.056891-1.501466 9.384164-5.555425 3.453372-5.855718 1.651613-14.939589-3.528446-18.167742-2.327273-1.426393-10.960704-1.876833-13.513196-0.67566z"  horiz-adv-x="1201" />

    
    <glyph glyph-name="jingjizibenjiliang" unicode="&#58889;" d="M170.666667 290.218667v-262.030223h682.666666v262.030223h85.333334V-57.173333H85.333333V290.218667h85.333334zM398.222222 241.777778v-142.222222h-85.333333v142.222222h85.333333z m142.222222 56.888889v-199.111111h-85.333333v199.111111h85.333333z m142.222223 142.222222v-341.333333h-85.333334V440.888889h85.333334zM227.555556 611.555556a28.444444 28.444444 0 0 0 28.444444-28.444445v-170.666667a28.444444 28.444444 0 0 0-28.444444-28.444444H56.888889a28.444444 28.444444 0 0 0-28.444445 28.444444v170.666667a28.444444 28.444444 0 0 0 28.444445 28.444445h170.666667z m739.555555 0a28.444444 28.444444 0 0 0 28.444445-28.444445v-170.666667a28.444444 28.444444 0 0 0-28.444445-28.444444h-170.666667a28.444444 28.444444 0 0 0-28.444444 28.444444v170.666667a28.444444 28.444444 0 0 0 28.444444 28.444445h170.666667z m-56.888889-28.444445h-56.888889v-56.888889h-56.888889v-56.888889h56.888889v-56.888889h56.888889v56.888889h56.888889v56.888889h-56.888889v56.888889zM227.555556 526.222222H56.888889v-56.888889h170.666667v56.888889zM910.222222 839.111111a28.444444 28.444444 0 0 0 28.444445-28.444444v-120.888889h-85.333334V753.777778H170.666667v-64H85.333333V810.666667a28.444444 28.444444 0 0 0 28.444445 28.444444h796.444444z"  horiz-adv-x="1024" />

    
    <glyph glyph-name="keyanxitong" unicode="&#58942;" d="M676 736.01H349.999c-17.673 0-32 14.327-32 32s14.327 32 32 32H676c17.673 0 32-14.327 32-32s-14.327-32-32-32zM750.363-64.219H276.609a177.019 177.019 0 0 0-88.311 23.64c-25.931 14.954-47.875 36.376-63.459 61.95-26.616 43.676-27.086 98.484-1.228 143.038l0.151 0.258 268.95 453.581c9.013 15.202 28.645 20.22 43.846 11.204 15.202-9.014 20.218-28.644 11.204-43.846L178.896 132.167c-14.004-24.225-13.78-53.904 0.594-77.491 20.634-33.86 57.848-54.895 97.119-54.895h473.754c32.551 0 63.659 14.173 85.349 38.885 23.789 27.104 27.9 66.847 10.271 98.992L582.458 591.023c-8.881 15.279-3.694 34.865 11.585 43.747 15.282 8.881 34.866 3.694 43.747-11.585l263.881-453.976 0.165-0.299c30.83-55.745 23.587-125.052-18.022-172.461-33.84-38.555-82.481-60.668-133.451-60.668zM420.1 572c-17.673 0-32 14.327-32 32V758.362c0 17.673 14.327 32 32 32s32-14.327 32-32V604c0-17.673-14.327-32-32-32zM610 581.647c-17.673 0-32 14.327-32 32V768.01c0 17.673 14.327 32 32 32s32-14.327 32-32v-154.362c0-17.674-14.327-32.001-32-32.001zM831-9H204.037c-6.6 0-63.037 49.4-63.037 56l51.037 197.035c0 6.6 5.4 12 12 12H831c6.6 0 12-5.4 12-12L883 49c0-6.6-45.4-58-52-58z"  horiz-adv-x="1024" />

    
    <glyph glyph-name="youqitong_huaban1" unicode="&#59000;" d="M869.973333 391.68l-347.733333 347.733333L469.333333 682.666667 414.293333 735.573333a28.16 28.16 0 0 1-40.106666-40.106666l55.466666-55.466667L170.666667 357.973333a53.333333 53.333333 0 0 1 0-74.666666l243.2-243.626667a55.466667 55.466667 0 0 1 38.4-15.786667 54.613333 54.613333 0 0 1 36.266666 14.506667l322.56 298.666667v-227.84h59.733334v282.026666z m-242.346666 130.56l-128 128 24.32 26.453333 282.453333-282.453333-573.866667-32 228.266667 246.186667 128-128a28.16 28.16 0 1 1 40.106667 40.106666z"  horiz-adv-x="1024" />

    
    <glyph glyph-name="mianxingshigonggongren" unicode="&#58943;" d="M258.8 46.6h514.3v-92.2c-27.7-3.5-55.8-8.1-84-10.5-129.4-11-258.7-10.1-387.9 3.6-42.5 4.5-42.5 4.5-42.5 47.7 0.1 16.7 0.1 33.4 0.1 51.4zM374.4 294c85.5-109.9 202.4-98.2 274.5-2.4 32.7-5.7 32.9-5.7 32.9-38.2 0.1-42.3-0.5-84.7 0.3-127 0.3-15-3.7-20.7-19.7-20.6-100.2 0.6-200.4 0.5-300.7 0.1-13.4-0.1-18.8 3.6-18.6 17.9 0.7 47.9 0.8 95.9 0.1 143.8-0.3 24.4 21.6 16.6 31.2 26.4zM283.3 251.6c0-45 0.3-89.7-0.6-134.5-0.1-3.8-7.9-10.1-12.7-10.7-52.7-6-69.7-24.3-70-77-0.1-20.5 0-41 0-67.2-30.2 10.5-57.5 19.5-84.3 29.8-3.5 1.3-6.7 9.1-6.5 13.8 4.9 110.3 51.3 209.6 169.2 246.7 0.6 0.3 1.2-0.1 4.9-0.9zM743.7 254.2c55.4-20.6 102.9-47.8 131.6-100.1 24.6-44.8 39.3-92.4 41.3-143.8 0.4-11.7-3.2-18.8-14.6-22.5-21.8-7-43.4-14.4-68.6-22.9 0 24.2-0.9 44.5 0.2 64.8 2.6 49.6-27.9 79.6-72.4 76-13.8-1.1-19.9 3-19.5 18.6 1.2 40.5 0.4 80.9 0.5 121.4 0.1 1.9 0.7 3.8 1.5 8.5zM725.3 639.6c-3.8 5.5-10.6 9.2-18.4 9.2h-0.1s0 0.1-0.1 0.1c-0.4 0.7-0.8 1.5-1.2 2.2-1.8 3.7-2.9 7.9-3.6 12.7-1.8 13-5.1 25.4-9.8 37.1-10.1 25.1-26.6 47.1-49.2 66-1.4 2-4 4.4-9 7.3-0.1 0.1-0.3 0.2-0.4 0.2-5.6 3.2-11.3 6.1-16.5 8.7 0-15.4 0-28.5-0.1-41.6 0-8.8-1.8-16.9-14.2-17.1-10.6-0.2-13.9 5.6-14.8 12.8-0.1 1.2-0.2 2.5-0.2 3.8-0.3 13.6-1 27.2 0 40.7 0 0.5 0.1 1 0.1 1.5 1 12.9-3.2 20.4-18.3 23.1-0.2 0-0.4 0.1-0.5 0.1-1.7 0.4-3.5 0.8-5.5 1.1-0.7 0.1-1.5 0.2-2.3 0.4-8.7 2-16.2 5.7-16.4 17.3 0 2.2-7.2 5.9-11.3 6.2-1.2 0.1-2.4 0.1-3.5 0.2-0.4 0.1-0.7 0.1-1.1 0.1-13.3 0.8-26.8 0.4-40.2-0.6-4.1-0.3-11.2-4.1-11.2-6.3 0-12.3-8.4-15.8-17.8-17.9h-0.1c-0.1 0-0.3 0-0.4-0.1-1.4-0.2-2.6-0.5-3.8-0.8-0.7-0.1-1.4-0.3-2.1-0.4-14-2.7-18.5-9.4-18.1-20.7 0-0.9 0.1-1.8 0.2-2.7 1.3-14 0.8-28.1 0.7-42.2 0-1.3-0.1-2.6-0.2-3.9-0.8-7.1-4.1-12.9-14.6-12.8-12.4 0.1-14.3 8.2-14.5 17-0.2 12.7-0.5 25.5-0.7 40.4v2.1c-0.2-0.1-0.5-0.3-0.7-0.4-6.4-3.7-10.5-5.5-13.8-8.1-27.6-20.9-47.5-45.6-58.8-74.3-4.8-12.1-8-25-9.7-38.5-0.5-3.8-1.2-7.3-2.4-10.4-0.3-0.8-0.6-1.6-1-2.3h-1c-11.3 0-20.5-7.7-21.5-17.4-0.1-0.6-0.1-1.2-0.1-1.7v-1.5c0-2.2 0.5-4.2 1.4-6.1 2.6-5.5 8.6-9.4 15.7-9.6H358.5c10.3-0.7 30.2-1.5 55.2 0h297.2c0.5 0 1 0 1.5 0.1 6.7 0.5 12.3 4.3 14.8 9.5 0.9 1.9 1.4 3.9 1.4 6.1v1.5c-0.1 3.6-1.3 7-3.3 9.9zM695.3 503.7c11.8 25.3 15.8 48.5 12.7 69.7H318.7c-3.4-21.6 0.5-45.3 12.3-71.1-28.7-10.8-35.6-31.2-18.1-49.4 7.7-8 19.1-13.9 28.4-21.1 7.6-5.8 15.6-11.4 21.6-18.1 23-25.7 41.3-54.8 68.6-77 48.5-39.5 114-39.6 162.8-0.7 26.4 21.1 44.2 48.8 66.5 73.1 8.1 8.8 16.8 18.2 28 24.2 40.5 21.7 45.5 52.5 6.5 70.4z m-51.6-84.5c-24.5-39.4-71-105.5-142.8-96.2-43.6 5.6-73 35.4-95.5 62.7-12.1 14.7-22.9 29.7-31.3 46-3 5.8-21 62.1-22.9 62.3 0.1 0 133.3-16.1 226.8 53.3 5.2 3.8 10.2 7.9 15.1 12.3 0 0 1-5 4.4-12.3 7.7-16.9 28.2-46.4 78.1-54.9 4.7-0.8-29.4-69.1-31.9-73.2z"  horiz-adv-x="1024" />

    
    <glyph glyph-name="touping" unicode="&#59358;" d="M853.015273 81.454545h-161.419637a34.909091 34.909091 0 0 0 0 69.818182h161.419637A54.690909 54.690909 0 0 1 907.636364 205.893818V631.924364A54.690909 54.690909 0 0 1 853.015273 686.545455H170.961455A54.667636 54.667636 0 0 1 116.363636 631.924364v-426.030546A54.667636 54.667636 0 0 1 170.961455 151.272727h141.358545a34.909091 34.909091 0 0 0 0-69.818182H170.961455A124.555636 124.555636 0 0 0 46.545455 205.893818V631.924364A124.555636 124.555636 0 0 0 170.961455 756.363636h682.053818A124.578909 124.578909 0 0 0 977.454545 631.924364v-426.030546A124.578909 124.578909 0 0 0 853.015273 81.454545zM674.909091-11.636364H349.090909l162.909091 209.454546 162.909091-209.454546z"  horiz-adv-x="1024" />

    
    <glyph glyph-name="caiwuguanli1" unicode="&#58952;" d="M725.333333 896l-170.666666-341.333333-128 341.333333H170.666667l256-384H213.333333v-170.666667h256v-85.333333H213.333333v-170.666667h256v-213.333333h170.666667v213.333333h256v170.666667h-256v85.333333h256V512h-213.333333l256 384h-213.333334z"  horiz-adv-x="1109" />

    
    <glyph glyph-name="zhedie" unicode="&#58951;" d="M130.901333 366.506667l149.205334-130.517334a8.533333 8.533333 0 0 1 14.122666 6.4V503.466667a8.533333 8.533333 0 0 1-14.122666 6.4L130.901333 379.392a8.533333 8.533333 0 0 1 0-12.8zM128 682.666667m42.666667 0l682.666666 0q42.666667 0 42.666667-42.666667l0 0q0-42.666667-42.666667-42.666667l-682.666666 0q-42.666667 0-42.666667 42.666667l0 0q0 42.666667 42.666667 42.666667ZM128 170.666667m42.666667 0l682.666666 0q42.666667 0 42.666667-42.666667l0 0q0-42.666667-42.666667-42.666667l-682.666666 0q-42.666667 0-42.666667 42.666667l0 0q0 42.666667 42.666667 42.666667ZM384 426.666667m42.666667 0l426.666666 0q42.666667 0 42.666667-42.666667l0 0q0-42.666667-42.666667-42.666667l-426.666666 0q-42.666667 0-42.666667 42.666667l0 0q0 42.666667 42.666667 42.666667Z"  horiz-adv-x="1024" />

    
    <glyph glyph-name="xiangyou" unicode="&#59176;" d="M249.311159 14.024667 619.286492 384 249.311159 753.975333 327.012845 831.677019 774.688841 384 327.012845-63.677019Z"  horiz-adv-x="1024" />

    
    <glyph glyph-name="hetongguanli" unicode="&#59010;" d="M762.7 360.3C822 360.3 876 337.8 917 301V639.1c0 106.1-86.8 192.8-192.8 192.8H261.3c-106.1 0-192.8-86.8-192.8-192.8v-462.8c0-106.1 86.8-192.8 192.8-192.8h321.5c-32.2 39.7-51.5 90.3-51.5 145.4 0 127.8 103.6 231.4 231.4 231.4zM261.3 617.4h462.8c21.2 0 38.6-17.4 38.6-38.6s-17.4-38.6-38.6-38.6H261.3c-21.2 0-38.6 17.4-38.6 38.6 0.1 21.2 17.4 38.6 38.6 38.6z m154.3-462.8H261.3c-21.2 0-38.6 17.4-38.6 38.6s17.4 38.6 38.6 38.6h154.3c21.2 0 38.6-17.4 38.6-38.6s-17.4-38.6-38.6-38.6z m0 192.8H261.3c-21.2 0-38.6 17.4-38.6 38.6s17.4 38.6 38.6 38.6h154.3c21.2 0 38.6-17.4 38.6-38.6 0-21.2-17.4-38.6-38.6-38.6zM762.7 321.7c-106.5 0-192.8-86.3-192.8-192.8s86.3-192.8 192.8-192.8 192.8 86.3 192.8 192.8-86.3 192.8-192.8 192.8z m119.2-184.6l-39.3-37c-3-2.8-4.4-6.9-3.8-11l8.2-53.3c2.3-14.7-13.3-25.6-26.3-18.4l-47.3 25.9c-3.6 2-7.9 2.1-11.6 0.2l-48.2-24.3c-13.3-6.7-28.4 4.7-25.7 19.3l10 53c0.8 4-0.5 8.2-3.4 11.1l-38 38.3c-10.5 10.5-4.3 28.5 10.5 30.4l53.5 6.8c4.1 0.5 7.6 3 9.5 6.7l24.7 48c6.8 13.2 25.8 12.9 32.1-0.6l23-48.8c1.8-3.7 5.2-6.3 9.3-7l53.2-8.7c14.8-2.2 20.4-20.4 9.6-30.6z"  horiz-adv-x="1024" />

    
    <glyph glyph-name="caiwuguanli" unicode="&#58880;" d="M512 896a512 512 0 1 1 512-512 512 512 0 0 1-512 512z m227.555556-512h-170.666667v-56.888889h170.666667v-113.777778h-170.666667v-170.666666H455.111111v170.666666H284.444444v113.777778h170.666667V384H284.444444V497.777778h147.342223l-130.844445 130.275555 80.782222 80.782223L512 577.991111l130.275556 130.275556 80.213333-80.213334L592.213333 497.777778H739.555556z"  horiz-adv-x="1024" />

    
    <glyph glyph-name="zhaobiaoguanli" unicode="&#58900;" d="M511.893142 400.103518m-191.959928 0a191.959928 191.959928 0 1 1 383.919857 0 191.959928 191.959928 0 1 1-383.919857 0ZM14.077061-46.011355l147.041306 147.041305 67.825841-67.825841-147.041305-147.105292a47.989982 47.989982 0 0 0-67.825842 0 47.989982 47.989982 0 0 0 0 67.825841zM942.139328-113.19733l-147.105291 147.041305 67.889828 67.825841 147.041305-146.977318a47.989982 47.989982 0 0 0 0-67.889828 47.989982 47.989982 0 0 0-67.825842 0zM511.893142-95.792963a495.896482 495.896482 0 1 0 495.896482 495.896481A496.536348 496.536348 0 0 0 511.893142-95.792963z m0 895.812999a399.916517 399.916517 0 1 1 399.916518-399.916518A399.916517 399.916517 0 0 1 511.893142 800.020036z"  horiz-adv-x="1024" />

    
    <glyph glyph-name="caigouguanli" unicode="&#59368;" d="M842.726957 44.396486a92.824783 92.824783 0 0 1-31.083528 20.864286 95.805395 95.805395 0 0 1-37.896357 7.664432 94.102188 94.102188 0 0 1-67.702479-28.528718 111.134259 111.134259 0 0 1-20.864286-32.360933 103.044025 103.044025 0 0 1 0-77.921722 108.153646 108.153646 0 0 1 20.864286-32.360933 92.398981 92.398981 0 0 1 105.598836-21.71589 104.747232 104.747232 0 0 1 31.083528 21.71589 111.134259 111.134259 0 0 1 20.864286 32.360933 98.360206 98.360206 0 0 1 7.664432 38.74796 100.489215 100.489215 0 0 1-7.664432 39.173762 111.134259 111.134259 0 0 1-20.864286 32.360933zM410.963975 48.654504a94.52799 94.52799 0 0 1-68.128281 28.528718 96.231197 96.231197 0 0 1-38.322158-7.664432 93.250585 93.250585 0 0 1-30.657726-20.864286 109.856853 109.856853 0 0 1-20.438485-32.360934 98.360206 98.360206 0 0 1-7.664431-38.74796 100.489215 100.489215 0 0 1 7.664431-39.173761 106.876241 106.876241 0 0 1 20.438485-32.360934 111.134259 111.134259 0 0 1 30.657726-21.715889 96.656999 96.656999 0 0 1 38.322158-8.090234 94.102188 94.102188 0 0 1 37.470555 8.090234 111.134259 111.134259 0 0 1 30.657726 21.715889 109.856853 109.856853 0 0 1 20.438485 32.360934 100.489215 100.489215 0 0 1 7.664431 39.173761 98.360206 98.360206 0 0 1-7.664431 38.74796 109.856853 109.856853 0 0 1-20.438485 32.360934zM656.225787 871.7293A70.25729 70.25729 0 0 1 603.852171 896 73.237902 73.237902 0 0 1 553.607564 870.451895L414.796191 725.679297h378.963564zM689.864126 507.668798v6.812828a52.799418 52.799418 0 0 1 0 6.812828 37.470555 37.470555 0 0 1-2.129009 6.387026 85.160351 85.160351 0 0 1-159.249857 0 37.470555 37.470555 0 0 1-2.129009-6.387026V512.778419a42.580176 42.580176 0 0 1 0-6.812828v-2.129009a30.231925 30.231925 0 0 1 0-5.961225v-8.090233a9.367639 9.367639 0 0 0 0-3.406414v-8.516035a85.160351 85.160351 0 0 1 61.315453-62.592858 95.379594 95.379594 0 0 1 22.141692-2.554811 98.360206 98.360206 0 0 1 22.141691 2.554811 85.160351 85.160351 0 0 1 61.315453 62.592858 12.348251 12.348251 0 0 0 0 3.832216 18.309476 18.309476 0 0 0 0 4.683819V491.488331a22.567493 22.567493 0 0 1 0 5.535423 5.535423 5.535423 0 0 1 0 2.55481 28.102916 28.102916 0 0 1 0 5.961225zM1015.60247 663.938043a51.096211 51.096211 0 0 1-22.567493 19.161079 106.876241 106.876241 0 0 1-45.134986 8.090233H239.365867c0 14.47726-4.258018 28.102916-6.387026 42.580176l-3.832216 31.935131c0 10.219242-2.980612 18.735277-4.258017 24.270701s-2.980612 11.496647-5.109621 18.735277a59.186444 59.186444 0 0 1-30.231925 36.618951A66.425074 66.425074 0 0 1 156.334525 853.419824H52.013094a50.670409 50.670409 0 0 1-37.896356-14.051458 50.244607 50.244607 0 0 1-14.051458-37.470554 113.689069 113.689069 0 0 1 2.554811-23.844899 70.25729 70.25729 0 0 1 9.367638-24.2707 63.01866 63.01866 0 0 1 17.03207-19.586881 42.580176 42.580176 0 0 1 25.973908-8.516035h77.495919c16.606269-89.844171 31.50933-170.320703 44.709185-244.410208l16.606268-93.250585 14.903062-85.160351 11.496647-62.592859c0-10.219242 3.832216-20.864286 5.535423-31.50933s5.535423-23.419097 8.941837-34.489942a156.269245 156.269245 0 0 1 14.903062-34.489942 85.160351 85.160351 0 0 1 23.419096-25.548106 59.186444 59.186444 0 0 1 34.489942-9.79344H851.668794a42.580176 42.580176 0 0 1 38.74796 15.754665 72.8121 72.8121 0 0 1 10.219242 37.470555q0 42.580176-49.818806 44.709184H326.229426L311.752166 299.87754h543.748844a76.644316 76.644316 0 0 1 50.244607 17.032071 130.721139 130.721139 0 0 1 34.06414 60.463849c4.683819 13.625656 11.070846 32.360934 18.735278 56.205832l23.844898 72.386299c8.090233 24.2707 15.328863 46.412391 22.567493 66.850876s11.496647 33.638339 13.199855 40.025365a92.824783 92.824783 0 0 1 3.832215 25.548105 45.560788 45.560788 0 0 1-6.387026 25.548106z m-241.003794-127.740528v-72.8121h-42.580176a97.934404 97.934404 0 0 0-5.109621-14.47726c0-3.832216-3.832216-7.664432-5.961225-11.496647l29.380322-29.380321-51.522013-51.522013-29.380321 28.528718-11.496648-5.535423-15.328863-5.535423v-42.580176h-74.941109v42.580176l-14.051458 2.980612a95.379594 95.379594 0 0 0-11.496648 5.535423l-29.380321-29.380321-51.947814 51.522013 29.380321 29.380321c0 3.832216-3.832216 7.664432-5.535423 11.496647a97.934404 97.934404 0 0 0-5.109621 14.47726h-42.580175v76.644316h42.580175a143.06939 143.06939 0 0 0 11.922449 28.95452l-29.380321 29.380321L511.027388 646.48017l29.380321-29.380321a139.237174 139.237174 0 0 0 28.528718 11.922449v42.580176h73.237902v-42.580176a139.237174 139.237174 0 0 0 28.528718-11.922449l29.380321 29.380321 51.522013-51.522012-29.380321-29.380321a122.205104 122.205104 0 0 0 11.922449-28.95452z"  horiz-adv-x="1024" />

    
    <glyph glyph-name="zonghechaxun" unicode="&#59050;" d="M908-60l-320 0c-22.4 0-40 17.6-40 40l0 320c0 22.4 17.6 40 40 40l320 0c22.4 0 40-17.6 40-40l0-320C948-42.4 930.4-60 908-60zM877.6 451.2 780.8 548.8c-23.2-15.2-50.4-24.8-80.8-24.8-79.2 0-144 64.8-144 144s64.8 144 144 144 144-64.8 144-144c0-23.2-5.6-45.6-16-65.6l100.8-100.8c14.4-14.4 14.4-36.8 0-51.2C914.4 436.8 892 436.8 877.6 451.2zM700 740c-40 0-72-32-72-72s32-72 72-72 72 32 72 72S740 740 700 740zM428-60l-320 0c-22.4 0-40 17.6-40 40l0 320c0 22.4 17.6 40 40 40l320 0c22.4 0 40-17.6 40-40l0-320C468-42.4 450.4-60 428-60zM428 420l-320 0c-22.4 0-40 17.6-40 40l0 320c0 22.4 17.6 40 40 40l320 0c22.4 0 40-17.6 40-40l0-320C468 437.6 450.4 420 428 420z"  horiz-adv-x="1024" />

    
    <glyph glyph-name="guanbi" unicode="&#59175;" d="M563.53961182 375.47186279000005L835.32763672 647.2598877c13.71917724 13.71917724 13.71917724 36.33728028 0 50.05645751l-1.4831543 1.4831543c-13.71917724 13.71917724-36.33728028 13.71917724-50.05645752 0L512 426.64068604l-271.7880249 272.15881347c-13.71917724 13.71917724-36.33728028 13.71917724-50.05645752 0l-1.4831543-1.4831543c-14.08996583-13.71917724-14.08996583-36.33728028 0-50.05645751l271.7880249-271.78802491L188.67236328 103.68383788999995c-13.71917724-13.71917724-13.71917724-36.33728028 0-50.05645752l1.4831543-1.4831543c13.71917724-13.71917724 36.33728028-13.71917724 50.05645752 0L512 323.93225097000004l271.7880249-271.7880249c13.71917724-13.71917724 36.33728028-13.71917724 50.05645752 0l1.4831543 1.4831543c13.71917724 13.71917724 13.71917724 36.33728028 0 50.05645752L563.53961182 375.47186279000005z"  horiz-adv-x="1024" />

    
    <glyph glyph-name="chaxun" unicode="&#58990;" d="M941.6 22L763.7 199.89999999999998c20.6 26.7 37.6 55.9 50.8 87.2 20.3 48.3 30.6 99.6 30.6 152.4s-10.3 104.1-30.6 152.4c-19.6 46.6-47.7 88.5-83.5 124.5s-77.5 64.2-123.9 84C559 820.7 507.9 831.1 455.3 831.1S351.6 820.7 303.5 800.2c-46.4-19.7-88.1-48-123.9-84-35.8-36-63.9-77.8-83.5-124.5-20.3-48.3-30.6-99.6-30.6-152.4s10.3-104.1 30.6-152.4c19.6-46.6 47.7-88.5 83.5-124.5s77.5-64.2 123.9-84c48.1-20.5 99.2-30.8 151.8-30.8S559 58 607.1 78.39999999999998c31.7 13.5 61.2 30.9 88.1 52l177.6-177.6c18.9-18.9 49.9-18.9 68.9 0 18.9 19.3 18.9 50.3-0.1 69.2zM455.3 127.70000000000005c-170.9 0-310 139.8-310 311.7s139 311.7 310 311.7c170.9 0 310-139.8 310-311.7s-139.1-311.7-310-311.7z"  horiz-adv-x="1024" />

    
    <glyph glyph-name="danseshixintubiao-" unicode="&#58927;" d="M523.3 539.5m-233.9 0a233.9 233.9 0 1 1 467.8 0 233.9 233.9 0 1 1-467.8 0ZM875.7 22.200000000000045C872 206.29999999999995 708.5 352.4 510.4 348.4S154.8 192 158.5 7.899999999999977l717.2 14.3z"  horiz-adv-x="1024" />

    
    <glyph glyph-name="wenjian" unicode="&#58909;" d="M851.2 864H198.4c-38.4 0-64-25.6-64-64v-844.8c0-32 32-64 64-64h409.6c38.4 0 64 25.6 64 64v134.4c0 32 32 64 64 64h108.8c38.4 0 64 25.6 64 64V806.4c12.8 32-19.2 57.6-57.6 57.6zM640 339.20000000000005c0-19.2-12.8-32-32-32H320c-19.2 0-32 12.8-32 32v6.4c0 19.2 12.8 32 32 32h288c19.2 0 32-12.8 32-38.4zM780.8 512c0-19.2-12.8-32-32-32H320c-19.2 6.4-38.4 19.2-38.4 32v6.4c0 19.2 12.8 32 32 32h428.8c25.6 0 38.4-12.8 38.4-38.4z m0 172.8c0-19.2-12.8-32-32-32H320c-19.2 0-32 12.8-32 32v6.4c0 19.2 12.8 32 32 32h428.8c19.2 0 32-12.8 32-38.4zM716.8 44.799999999999955v-89.6c0-32 38.4-44.8 57.6-25.6l128 128c19.2 19.2 6.4 57.6-25.6 57.6h-89.6c-38.4 0-70.4-32-70.4-70.4z"  horiz-adv-x="1024" />

    
    <glyph glyph-name="shezhi" unicode="&#58897;" d="M881 384c0 52.4 32.9 96.8 79 114.5-11 43.2-28 83.9-50.2 121.3C864.6 599.7 810 607.9 773 645c-37 37-45.2 91.7-25.1 136.8C710.4 804 669.7 821 626.5 832c-17.8-46.1-62.2-79-114.5-79-52.4 0-96.8 32.9-114.5 79-43.2-11-83.9-28-121.3-50.2 20.1-45.2 11.9-99.8-25.1-136.8-37-37-91.7-45.2-136.8-25.2C92 582.4 75 541.7 64 498.5c46.1-17.8 79-62.2 79-114.5 0-52.4-32.9-96.8-79-114.5 11-43.2 28-83.9 50.2-121.3C159.4 168.29999999999995 214 160.10000000000002 251 123c37-37 45.2-91.7 25.1-136.8C313.6-36 354.3-53 397.5-64c17.8 46.1 62.2 79 114.5 79 52.4 0 96.8-32.9 114.5-79 43.2 11 83.9 28 121.3 50.2-20.1 45.2-11.9 99.8 25.1 136.8 37 37 91.7 45.2 136.8 25.2C932 185.60000000000002 949 226.29999999999995 960 269.5c-46.1 17.7-79 62.1-79 114.5zM512 261c-67.9 0-123 55.1-123 123s55.1 123 123 123 123-55.1 123-123-55.1-123-123-123z"  horiz-adv-x="1024" />

    


  </font>
</defs>
</svg>
